<svg width="22" height="16" fill="none" xmlns="http://www.w3.org/2000/svg"><path d="M18.624 1.326A18.783 18.783 0 0014.146.001a.07.07 0 00-.072.033c-.194.328-.408.756-.558 1.092a17.544 17.544 0 00-5.03 0A10.86 10.86 0 007.922.034.072.072 0 007.849 0C6.277.26 4.774.711 3.37 1.326a.063.063 0 00-.03.024C.49 5.416-.292 9.382.091 13.298c.002.02.013.038.029.05a18.6 18.6 0 005.493 2.65.073.073 0 00.077-.025c.423-.552.8-1.133 1.124-1.744.02-.036 0-.079-.038-.093a12.277 12.277 0 01-1.716-.78.066.066 0 01-.007-.112c.115-.082.23-.168.34-.255a.07.07 0 01.072-.009c3.6 1.569 7.498 1.569 11.056 0a.07.07 0 01.072.008c.11.087.226.174.342.256a.066.066 0 01-.006.112c-.548.306-1.118.564-1.717.78a.066.066 0 00-.038.093c.33.61.708 1.192 1.123 1.743a.072.072 0 00.078.025 18.539 18.539 0 005.502-2.65.067.067 0 00.028-.048c.459-4.528-.768-8.461-3.253-11.948a.055.055 0 00-.028-.025zM7.352 10.914c-1.084 0-1.977-.95-1.977-2.116 0-1.166.875-2.116 1.977-2.116 1.11 0 1.994.958 1.977 2.116 0 1.166-.876 2.116-1.977 2.116zm7.31 0c-1.084 0-1.977-.95-1.977-2.116 0-1.166.876-2.116 1.977-2.116 1.11 0 1.994.958 1.977 2.116 0 1.166-.867 2.116-1.977 2.116z" fill="#92A2F6"/></svg>