<svg width="540" height="116" fill="none" xmlns="http://www.w3.org/2000/svg"><rect x="180" y="20" width="180" height="96" rx="6" fill="#E0F4FF"/><rect x="180" y="20" width="180" height="96" rx="6" fill="url(#paint0_linear_175_3344)"/><rect x="180" y="20" width="180" height="96" rx="6" fill="url(#paint1_radial_175_3344)"/><path d="M213.04 40v-6.48h-1.62v-.82H214V40h-.96zm4.829.16c-.7 0-1.244-.15-1.63-.45-.38-.3-.577-.71-.59-1.23h.9c.013.207.116.403.31.59.2.18.536.27 1.01.27.426 0 .753-.083.98-.25.226-.173.34-.383.34-.63 0-.22-.084-.39-.25-.51-.167-.127-.437-.21-.81-.25l-.58-.06c-.507-.053-.92-.203-1.24-.45-.32-.253-.48-.607-.48-1.06 0-.513.19-.913.57-1.2.38-.287.87-.43 1.47-.43s1.086.133 1.46.4c.373.267.566.663.58 1.19h-.9c-.007-.213-.107-.393-.3-.54-.187-.153-.467-.23-.84-.23-.374 0-.657.077-.85.23a.709.709 0 00-.29.58c0 .2.066.36.2.48.14.12.366.197.68.23l.58.06c.573.06 1.033.22 1.38.48.346.253.52.613.52 1.08 0 .333-.097.63-.29.89a1.89 1.89 0 01-.78.6c-.334.14-.717.21-1.15.21zm5.691-.1c-.4 0-.747-.057-1.04-.17a1.32 1.32 0 01-.67-.58c-.153-.28-.23-.657-.23-1.13v-2.8h-.92v-.72h.92v-1.62h.92v1.62h1.84v.72h-1.84v2.92c0 .287.077.51.23.67.16.153.383.23.67.23h.94v.86h-.82zm4.453 1.94v-7.34h.76v1.31c.18-.513.46-.89.84-1.13.38-.24.807-.36 1.28-.36.52 0 .97.127 1.35.38.387.253.687.59.9 1.01.214.413.32.87.32 1.37v.18c0 .5-.11.96-.33 1.38-.22.413-.526.747-.92 1a2.39 2.39 0 01-1.34.38c-.366 0-.72-.077-1.06-.23a1.926 1.926 0 01-.84-.75V42h-.96zm2.71-2.66c.36 0 .674-.083.94-.25a1.73 1.73 0 00.62-.71 2.4 2.4 0 00.22-1.05c0-.4-.073-.75-.22-1.05a1.685 1.685 0 00-1.56-.96c-.32 0-.616.073-.89.22-.273.14-.493.347-.66.62-.16.267-.24.59-.24.97v.46c0 .367.084.68.25.94.167.26.387.46.66.6.274.14.567.21.88.21zm4.245.66v-6.54h-.74v-.76h1.7V40h-.96zm4.281.14c-.607 0-1.083-.15-1.43-.45-.34-.307-.51-.737-.51-1.29 0-.567.19-.993.57-1.28.38-.293.917-.44 1.61-.44h1.35v-.13c0-.74-.373-1.11-1.12-1.11-.307 0-.627.007-.96.02-.333.013-.61.027-.83.04v-.84c.213-.02.45-.033.71-.04.267-.013.52-.02.76-.02.82 0 1.417.15 1.79.45.38.3.57.823.57 1.57V40h-.76v-1.06c-.24.8-.823 1.2-1.75 1.2zm.2-.76c.227 0 .443-.04.65-.12a1.15 1.15 0 00.51-.42c.14-.2.217-.473.23-.82v-.62h-1.39c-.387 0-.683.093-.89.28a.925.925 0 00-.31.72c0 .293.103.53.31.71.207.18.503.27.89.27zm6.362.8c-.46 0-.86-.08-1.2-.24a2.414 2.414 0 01-.83-.64 2.98 2.98 0 01-.5-.9 3.132 3.132 0 01-.16-.98v-.18c0-.34.053-.673.16-1 .113-.327.28-.62.5-.88a2.52 2.52 0 01.84-.64c.333-.16.723-.24 1.17-.24.447 0 .847.083 1.2.25.36.167.647.403.86.71.22.3.343.657.37 1.07h-.92a1.29 1.29 0 00-.46-.83c-.26-.227-.61-.34-1.05-.34-.38 0-.697.087-.95.26a1.59 1.59 0 00-.57.71c-.127.3-.19.64-.19 1.02 0 .367.063.703.19 1.01.127.3.317.54.57.72.26.173.583.26.97.26.447 0 .807-.113 1.08-.34a1.3 1.3 0 00.47-.86h.92c-.02.42-.143.783-.37 1.09a2.23 2.23 0 01-.88.72c-.36.167-.767.25-1.22.25zm6.045 0c-.467 0-.87-.08-1.21-.24-.34-.16-.617-.37-.83-.63a2.782 2.782 0 01-.48-.89 3.4 3.4 0 01-.15-1v-.18c0-.347.05-.683.15-1.01.106-.327.266-.62.48-.88a2.23 2.23 0 01.81-.63c.333-.16.723-.24 1.17-.24.58 0 1.056.127 1.43.38.38.247.66.567.84.96.186.393.28.813.28 1.26v.43h-4.24c.033.527.19.963.47 1.31.28.347.706.52 1.28.52.42 0 .76-.093 1.02-.28.266-.187.426-.403.48-.65h.9c-.114.553-.384.987-.81 1.3-.427.313-.957.47-1.59.47zm-.06-4.86c-.48 0-.857.137-1.13.41-.274.267-.447.62-.52 1.06h3.26c-.06-.453-.224-.81-.49-1.07-.267-.267-.64-.4-1.12-.4zm3.723 4.68v-1.22h1.16V40h-1.16zm0-3.7v-1.22h1.16v1.22h-1.16zm7.669 5.248v-1.56c-.888-.104-1.56-.396-2.016-.876-.456-.488-.684-1.116-.684-1.884h1.536c0 .248.06.484.18.708.128.224.332.408.612.552.28.136.648.204 1.104.204.6 0 1.056-.112 1.368-.336.312-.232.468-.524.468-.876 0-.312-.136-.572-.408-.78-.272-.208-.684-.336-1.236-.384l-.672-.06c-.832-.072-1.492-.32-1.98-.744s-.732-1.024-.732-1.8c0-.704.212-1.26.636-1.668.432-.416 1.024-.672 1.776-.768v-1.2h1.392v1.212c.752.112 1.332.4 1.74.864.416.464.624 1.068.624 1.812h-1.536c0-.36-.128-.68-.384-.96-.256-.28-.648-.42-1.176-.42-.48 0-.852.108-1.116.324a.978.978 0 00-.396.804c0 .28.1.528.3.744.208.216.54.344.996.384l.672.06c.92.088 1.656.348 2.208.78.56.432.84 1.032.84 1.8 0 .72-.24 1.3-.72 1.74-.472.432-1.14.692-2.004.78v1.548h-1.392zm8.296-1.32c-.672 0-1.252-.128-1.74-.384a2.784 2.784 0 01-1.104-1.02 2.772 2.772 0 01-.384-1.44h1.644c0 .432.14.776.42 1.032.288.256.676.384 1.164.384.496 0 .884-.132 1.164-.396.28-.272.42-.628.42-1.068 0-.432-.14-.784-.42-1.056-.28-.28-.664-.42-1.152-.42-.24 0-.452.036-.636.108-.184.064-.34.144-.468.24l-.78-1.344 2.88-1.968-.108-.204h-3.768V31.24h5.724v1.752l-2.496 1.656c.6.04 1.112.18 1.536.42.432.232.76.54.984.924.232.384.348.82.348 1.308v.156c0 .504-.128.968-.384 1.392-.256.416-.624.752-1.104 1.008-.48.248-1.06.372-1.74.372zm7.512 0c-.672 0-1.252-.128-1.74-.384a2.784 2.784 0 01-1.104-1.02 2.772 2.772 0 01-.384-1.44h1.644c0 .432.14.776.42 1.032.288.256.676.384 1.164.384.496 0 .884-.132 1.164-.396.28-.272.42-.628.42-1.068 0-.432-.14-.784-.42-1.056-.28-.28-.664-.42-1.152-.42-.24 0-.452.036-.636.108-.184.064-.34.144-.468.24l-.78-1.344 2.88-1.968-.108-.204h-3.768V31.24h5.724v1.752l-2.496 1.656c.6.04 1.112.18 1.536.42.432.232.76.54.984.924.232.384.348.82.348 1.308v.156c0 .504-.128.968-.384 1.392-.256.416-.624.752-1.104 1.008-.48.248-1.06.372-1.74.372zm5.291 1.764l-1.296-.492 1.224-3.48 1.392.516-1.32 3.456zm6.319-1.764c-.688 0-1.276-.112-1.764-.336a3.25 3.25 0 01-1.176-.936 4.178 4.178 0 01-.66-1.368 6.334 6.334 0 01-.204-1.632v-.672c0-.8.132-1.524.396-2.172a3.453 3.453 0 011.248-1.548c.568-.384 1.288-.576 2.16-.576.864 0 1.576.192 2.136.576.56.384.972.9 1.236 1.548.272.648.408 1.372.408 2.172v.672c0 .576-.072 1.12-.216 1.632a3.882 3.882 0 01-.66 1.368 3.142 3.142 0 01-1.164.936c-.48.224-1.06.336-1.74.336zm0-1.56c.704 0 1.224-.244 1.56-.732.344-.496.516-1.264.516-2.304 0-1.096-.172-1.884-.516-2.364-.344-.48-.864-.72-1.56-.72-.704 0-1.232.24-1.584.72-.344.472-.516 1.252-.516 2.34 0 1.056.168 1.832.504 2.328.344.488.876.732 1.596.732zm9.07 1.56c-.688 0-1.276-.112-1.764-.336a3.25 3.25 0 01-1.176-.936 4.178 4.178 0 01-.66-1.368 6.334 6.334 0 01-.204-1.632v-.672c0-.8.132-1.524.396-2.172a3.453 3.453 0 011.248-1.548c.568-.384 1.288-.576 2.16-.576.864 0 1.576.192 2.136.576.56.384.972.9 1.236 1.548.272.648.408 1.372.408 2.172v.672c0 .576-.072 1.12-.216 1.632a3.882 3.882 0 01-.66 1.368 3.142 3.142 0 01-1.164.936c-.48.224-1.06.336-1.74.336zm0-1.56c.704 0 1.224-.244 1.56-.732.344-.496.516-1.264.516-2.304 0-1.096-.172-1.884-.516-2.364-.344-.48-.864-.72-1.56-.72-.704 0-1.232.24-1.584.72-.344.472-.516 1.252-.516 2.34 0 1.056.168 1.832.504 2.328.344.488.876.732 1.596.732zm9.071 1.56c-.688 0-1.276-.112-1.764-.336a3.25 3.25 0 01-1.176-.936 4.178 4.178 0 01-.66-1.368 6.334 6.334 0 01-.204-1.632v-.672c0-.8.132-1.524.396-2.172a3.453 3.453 0 011.248-1.548c.568-.384 1.288-.576 2.16-.576.864 0 1.576.192 2.136.576.56.384.972.9 1.236 1.548.272.648.408 1.372.408 2.172v.672c0 .576-.072 1.12-.216 1.632a3.882 3.882 0 01-.66 1.368 3.142 3.142 0 01-1.164.936c-.48.224-1.06.336-1.74.336zm0-1.56c.704 0 1.224-.244 1.56-.732.344-.496.516-1.264.516-2.304 0-1.096-.172-1.884-.516-2.364-.344-.48-.864-.72-1.56-.72-.704 0-1.232.24-1.584.72-.344.472-.516 1.252-.516 2.34 0 1.056.168 1.832.504 2.328.344.488.876.732 1.596.732z" fill="#6C7193"/><path d="M270 0l-.093.84a8 8 0 01-7.068 7.067L262 8l.839.093a8 8 0 017.068 7.068L270 16l.093-.84a8 8 0 017.068-7.067L278 8l-.839-.093a8 8 0 01-7.068-7.068L270 0z" fill="#92A2F6"/><rect x="360" y="84" width="180" height="32" rx="6" fill="#E0F4FF"/><rect x="360" y="84" width="180" height="32" rx="6" fill="url(#paint2_linear_175_3344)"/><rect x="360" y="84" width="180" height="32" rx="6" fill="url(#paint3_radial_175_3344)"/><path d="M393.99 104.18c-.547 0-1.01-.107-1.39-.32a2.224 2.224 0 01-.87-.85 2.361 2.361 0 01-.29-1.15h.94c0 .453.143.813.43 1.08.293.267.687.4 1.18.4.493 0 .883-.133 1.17-.4.293-.267.44-.627.44-1.08 0-.453-.147-.82-.44-1.1-.287-.28-.673-.42-1.16-.42-.207 0-.387.027-.54.08a1.63 1.63 0 00-.39.18l-.48-.86 2.79-2.04-.1-.18h-3.55v-.82h4.45v1.33l-2.16 1.57h.01c.533 0 .987.1 1.36.3.373.2.657.467.85.8.2.333.3.697.3 1.09v.14c0 .387-.1.753-.3 1.1-.193.34-.48.617-.86.83-.373.213-.837.32-1.39.32zm4.073-.18v-5.34h.76v1.6c.08-.573.29-.993.63-1.26s.803-.4 1.39-.4h.18v.86h-.34c-.534 0-.944.143-1.23.43-.287.28-.43.687-.43 1.22V104h-.96zm6.273.18c-.507 0-.96-.123-1.36-.37a2.649 2.649 0 01-.93-.99 2.897 2.897 0 01-.34-1.4v-.18c0-.507.11-.967.33-1.38.22-.42.523-.753.91-1 .393-.253.846-.38 1.36-.38.393 0 .753.08 1.08.24.333.16.603.41.81.75V96.7h.96v7.3h-.76v-1.1c-.207.453-.497.78-.87.98-.367.2-.764.3-1.19.3zm.13-.84c.326 0 .623-.073.89-.22.266-.147.48-.357.64-.63.16-.28.24-.607.24-.98v-.46c0-.367-.084-.677-.25-.93a1.545 1.545 0 00-.65-.59c-.267-.14-.56-.21-.88-.21-.534 0-.967.183-1.3.55-.327.367-.49.853-.49 1.46 0 .407.076.763.23 1.07.153.3.366.533.64.7.273.16.583.24.93.24zm6.809 2.66v-7.34h.76v1.31c.18-.513.46-.89.84-1.13.38-.24.807-.36 1.28-.36.52 0 .97.127 1.35.38.387.253.687.59.9 1.01.214.413.32.87.32 1.37v.18c0 .5-.11.96-.33 1.38-.22.413-.526.747-.92 1a2.39 2.39 0 01-1.34.38c-.366 0-.72-.077-1.06-.23a1.923 1.923 0 01-.84-.75v2.8h-.96zm2.71-2.66c.36 0 .674-.083.94-.25.267-.173.474-.41.62-.71.147-.307.22-.657.22-1.05 0-.4-.073-.75-.22-1.05a1.685 1.685 0 00-1.56-.96c-.32 0-.616.073-.89.22-.273.14-.493.347-.66.62-.16.267-.24.59-.24.97v.46c0 .367.084.68.25.94.167.26.387.46.66.6.274.14.567.21.88.21zm4.245.66v-6.54h-.74v-.76h1.7v7.3h-.96zm4.281.14c-.606 0-1.083-.15-1.43-.45-.34-.307-.51-.737-.51-1.29 0-.567.19-.993.57-1.28.38-.293.917-.44 1.61-.44h1.35v-.13c0-.74-.373-1.11-1.12-1.11-.306 0-.626.007-.96.02-.333.013-.61.027-.83.04v-.84c.214-.02.45-.033.71-.04.267-.013.52-.02.76-.02.82 0 1.417.15 1.79.45.38.3.57.823.57 1.57V104h-.76v-1.06c-.24.8-.823 1.2-1.75 1.2zm.2-.76c.227 0 .444-.04.65-.12.207-.087.377-.227.51-.42.14-.2.217-.473.23-.82v-.62h-1.39c-.386 0-.683.093-.89.28a.93.93 0 00-.31.72c0 .293.104.53.31.71.207.18.504.27.89.27zm6.362.8c-.46 0-.86-.08-1.2-.24a2.41 2.41 0 01-.83-.64 2.994 2.994 0 01-.5-.9 3.16 3.16 0 01-.16-.98v-.18c0-.34.054-.673.16-1 .114-.327.28-.62.5-.88a2.52 2.52 0 01.84-.64c.334-.16.724-.24 1.17-.24.447 0 .847.083 1.2.25.36.167.647.403.86.71.22.3.344.657.37 1.07h-.92c-.046-.333-.2-.61-.46-.83-.26-.227-.61-.34-1.05-.34-.38 0-.696.087-.95.26a1.59 1.59 0 00-.57.71c-.126.3-.19.64-.19 1.02 0 .367.064.703.19 1.01.127.3.317.54.57.72.26.173.584.26.97.26.447 0 .807-.113 1.08-.34.274-.233.43-.52.47-.86h.92c-.02.42-.143.783-.37 1.09-.22.307-.513.547-.88.72-.36.167-.766.25-1.22.25zm6.045 0c-.467 0-.87-.08-1.21-.24-.34-.16-.617-.37-.83-.63a2.782 2.782 0 01-.48-.89 3.4 3.4 0 01-.15-1v-.18c0-.347.05-.683.15-1.01.106-.327.266-.62.48-.88a2.23 2.23 0 01.81-.63c.333-.16.723-.24 1.17-.24.58 0 1.056.127 1.43.38.38.247.66.567.84.96.186.393.28.813.28 1.26v.43h-4.24c.033.527.19.963.47 1.31.28.347.706.52 1.28.52.42 0 .76-.093 1.02-.28.266-.187.426-.403.48-.65h.9c-.114.553-.384.987-.81 1.3-.427.313-.957.47-1.59.47zm-.06-4.86c-.48 0-.857.137-1.13.41-.274.267-.447.62-.52 1.06h3.26c-.06-.453-.224-.81-.49-1.07-.267-.267-.64-.4-1.12-.4zm3.723 4.68v-1.22h1.16V104h-1.16zm0-3.7v-1.22h1.16v1.22h-1.16zm7.669 5.248v-1.56c-.888-.104-1.56-.396-2.016-.876-.456-.488-.684-1.116-.684-1.884h1.536c0 .248.06.484.18.708.128.224.332.408.612.552.28.136.648.204 1.104.204.6 0 1.056-.112 1.368-.336.312-.232.468-.524.468-.876 0-.312-.136-.572-.408-.78-.272-.208-.684-.336-1.236-.384l-.672-.06c-.832-.072-1.492-.32-1.98-.744s-.732-1.024-.732-1.8c0-.704.212-1.26.636-1.668.432-.416 1.024-.672 1.776-.768v-1.2h1.392v1.212c.752.112 1.332.4 1.74.864.416.464.624 1.068.624 1.812h-1.536c0-.36-.128-.68-.384-.96-.256-.28-.648-.42-1.176-.42-.48 0-.852.108-1.116.324a.978.978 0 00-.396.804c0 .28.1.528.3.744.208.216.54.344.996.384l.672.06c.92.088 1.656.348 2.208.78.56.432.84 1.032.84 1.8 0 .72-.24 1.3-.72 1.74-.472.432-1.14.692-2.004.78v1.548h-1.392zm6.844-1.548v-7.296h-1.788V95.24h3.48V104h-1.692zm5.098 0v-7.296h-1.788V95.24h3.48V104h-1.692zm4.33 1.992l-1.296-.492 1.224-3.48 1.392.516-1.32 3.456zm6.318-1.764c-.688 0-1.276-.112-1.764-.336a3.25 3.25 0 01-1.176-.936 4.178 4.178 0 01-.66-1.368 6.334 6.334 0 01-.204-1.632v-.672c0-.8.132-1.524.396-2.172a3.453 3.453 0 011.248-1.548c.568-.384 1.288-.576 2.16-.576.864 0 1.576.192 2.136.576.56.384.972.9 1.236 1.548.272.648.408 1.372.408 2.172v.672c0 .576-.072 1.12-.216 1.632a3.882 3.882 0 01-.66 1.368 3.142 3.142 0 01-1.164.936c-.48.224-1.06.336-1.74.336zm0-1.56c.704 0 1.224-.244 1.56-.732.344-.496.516-1.264.516-2.304 0-1.096-.172-1.884-.516-2.364-.344-.48-.864-.72-1.56-.72-.704 0-1.232.24-1.584.72-.344.472-.516 1.252-.516 2.34 0 1.056.168 1.832.504 2.328.344.488.876.732 1.596.732zm9.071 1.56c-.688 0-1.276-.112-1.764-.336a3.25 3.25 0 01-1.176-.936 4.178 4.178 0 01-.66-1.368 6.334 6.334 0 01-.204-1.632v-.672c0-.8.132-1.524.396-2.172a3.453 3.453 0 011.248-1.548c.568-.384 1.288-.576 2.16-.576.864 0 1.576.192 2.136.576.56.384.972.9 1.236 1.548.272.648.408 1.372.408 2.172v.672c0 .576-.072 1.12-.216 1.632a3.882 3.882 0 01-.66 1.368 3.142 3.142 0 01-1.164.936c-.48.224-1.06.336-1.74.336zm0-1.56c.704 0 1.224-.244 1.56-.732.344-.496.516-1.264.516-2.304 0-1.096-.172-1.884-.516-2.364-.344-.48-.864-.72-1.56-.72-.704 0-1.232.24-1.584.72-.344.472-.516 1.252-.516 2.34 0 1.056.168 1.832.504 2.328.344.488.876.732 1.596.732zm9.07 1.56c-.688 0-1.276-.112-1.764-.336a3.25 3.25 0 01-1.176-.936 4.178 4.178 0 01-.66-1.368 6.334 6.334 0 01-.204-1.632v-.672c0-.8.132-1.524.396-2.172a3.453 3.453 0 011.248-1.548c.568-.384 1.288-.576 2.16-.576.864 0 1.576.192 2.136.576.56.384.972.9 1.236 1.548.272.648.408 1.372.408 2.172v.672c0 .576-.072 1.12-.216 1.632a3.882 3.882 0 01-.66 1.368 3.142 3.142 0 01-1.164.936c-.48.224-1.06.336-1.74.336zm0-1.56c.704 0 1.224-.244 1.56-.732.344-.496.516-1.264.516-2.304 0-1.096-.172-1.884-.516-2.364-.344-.48-.864-.72-1.56-.72-.704 0-1.232.24-1.584.72-.344.472-.516 1.252-.516 2.34 0 1.056.168 1.832.504 2.328.344.488.876.732 1.596.732z" fill="#6C7193"/><path d="M450 64l-.093.84a8 8 0 01-7.068 7.067L442 72l.839.093a8 8 0 017.068 7.068L450 80l.093-.84a8 8 0 017.068-7.067L458 72l-.839-.093a8 8 0 01-7.068-7.068L450 64z" fill="#E9E7FD"/><rect y="52" width="180" height="64" rx="6" fill="#E0F4FF"/><rect y="52" width="180" height="64" rx="6" fill="url(#paint4_linear_175_3344)"/><rect y="52" width="180" height="64" rx="6" fill="url(#paint5_radial_175_3344)"/><path d="M30.76 72v-1.2c0-.293.04-.543.12-.75a1.44 1.44 0 01.44-.56c.207-.173.487-.34.84-.5l1.37-.63a2.14 2.14 0 00.79-.59c.193-.247.29-.563.29-.95 0-.467-.13-.83-.39-1.09-.26-.26-.627-.39-1.1-.39-.467 0-.833.13-1.1.39-.267.26-.4.623-.4 1.09h-.94c0-.42.087-.807.26-1.16.18-.353.45-.633.81-.84.36-.213.817-.32 1.37-.32.553 0 1.007.107 1.36.32.36.207.627.48.8.82.18.34.27.71.27 1.11v.14c0 .527-.153.97-.46 1.33-.3.36-.707.657-1.22.89l-1.37.63c-.307.14-.513.28-.62.42-.107.14-.16.327-.16.56v.46h3.92V72h-4.88zm6.342 0v-5.34h.76v1.24c.12-.453.333-.8.64-1.04.313-.24.72-.36 1.22-.36h.04c.673 0 1.17.21 1.49.63.326.42.49 1.027.49 1.82V72h-.96v-3.25c0-.413-.117-.743-.35-.99-.234-.253-.554-.38-.96-.38-.42 0-.76.13-1.02.39s-.39.607-.39 1.04V72h-.96zm8.626.18c-.507 0-.96-.123-1.36-.37a2.656 2.656 0 01-.93-.99 2.9 2.9 0 01-.34-1.4v-.18c0-.507.11-.967.33-1.38.22-.42.524-.753.91-1 .393-.253.847-.38 1.36-.38.394 0 .754.08 1.08.24.334.16.604.41.81.75V64.7h.96V72h-.76v-1.1c-.206.453-.496.78-.87.98-.367.2-.763.3-1.19.3zm.13-.84c.327 0 .623-.073.89-.22a1.66 1.66 0 00.64-.63c.16-.28.24-.607.24-.98v-.46c0-.367-.083-.677-.25-.93a1.543 1.543 0 00-.65-.59c-.267-.14-.56-.21-.88-.21-.533 0-.966.183-1.3.55-.327.367-.49.853-.49 1.46 0 .407.077.763.23 1.07.154.3.367.533.64.7.274.16.584.24.93.24zm6.81 2.66v-7.34h.76v1.31c.18-.513.46-.89.84-1.13.38-.24.807-.36 1.28-.36.52 0 .97.127 1.35.38.387.253.687.59.9 1.01.213.413.32.87.32 1.37v.18c0 .5-.11.96-.33 1.38-.22.413-.527.747-.92 1a2.39 2.39 0 01-1.34.38c-.367 0-.72-.077-1.06-.23a1.926 1.926 0 01-.84-.75V74h-.96zm2.71-2.66c.36 0 .673-.083.94-.25.267-.173.473-.41.62-.71.147-.307.22-.657.22-1.05 0-.4-.073-.75-.22-1.05a1.686 1.686 0 00-1.56-.96c-.32 0-.617.073-.89.22-.273.14-.493.347-.66.62-.16.267-.24.59-.24.97v.46c0 .367.083.68.25.94.167.26.387.46.66.6.273.14.567.21.88.21zm4.245.66v-6.54h-.74v-.76h1.7V72h-.96zm4.28.14c-.606 0-1.082-.15-1.43-.45-.34-.307-.51-.737-.51-1.29 0-.567.19-.993.57-1.28.38-.293.918-.44 1.61-.44h1.35v-.13c0-.74-.372-1.11-1.12-1.11-.306 0-.626.007-.96.02-.332.013-.61.027-.83.04v-.84c.214-.02.45-.033.71-.04.268-.013.52-.02.76-.02.82 0 1.418.15 1.79.45.38.3.57.823.57 1.57V72h-.76v-1.06c-.24.8-.822 1.2-1.75 1.2zm.2-.76c.228 0 .444-.04.65-.12.208-.087.378-.227.51-.42.14-.2.218-.473.23-.82v-.62h-1.39c-.386 0-.682.093-.89.28a.926.926 0 00-.31.72c0 .293.104.53.31.71.208.18.504.27.89.27zm6.363.8c-.46 0-.86-.08-1.2-.24a2.41 2.41 0 01-.83-.64 2.986 2.986 0 01-.5-.9 3.14 3.14 0 01-.16-.98v-.18c0-.34.053-.673.16-1 .113-.327.28-.62.5-.88.226-.267.506-.48.84-.64.333-.16.723-.24 1.17-.24.447 0 .847.083 1.2.25.36.167.647.403.86.71.22.3.343.657.37 1.07h-.92a1.29 1.29 0 00-.46-.83c-.26-.227-.61-.34-1.05-.34-.38 0-.697.087-.95.26a1.58 1.58 0 00-.57.71 2.6 2.6 0 00-.19 1.02c0 .367.063.703.19 1.01.126.3.317.54.57.72.26.173.583.26.97.26.447 0 .806-.113 1.08-.34a1.3 1.3 0 00.47-.86h.92a1.95 1.95 0 01-.37 1.09c-.22.307-.514.547-.88.72a2.87 2.87 0 01-1.22.25zm6.044 0c-.466 0-.87-.08-1.21-.24a2.35 2.35 0 01-.83-.63 2.81 2.81 0 01-.48-.89 3.4 3.4 0 01-.15-1v-.18c0-.347.05-.683.15-1.01a2.7 2.7 0 01.48-.88 2.24 2.24 0 01.81-.63c.334-.16.724-.24 1.17-.24.58 0 1.057.127 1.43.38.38.247.66.567.84.96.187.393.28.813.28 1.26v.43h-4.24c.034.527.19.963.47 1.31.28.347.707.52 1.28.52.42 0 .76-.093 1.02-.28.267-.187.427-.403.48-.65h.9c-.113.553-.383.987-.81 1.3-.426.313-.956.47-1.59.47zm-.06-4.86c-.48 0-.856.137-1.13.41-.273.267-.446.62-.52 1.06h3.26c-.06-.453-.223-.81-.49-1.07-.266-.267-.64-.4-1.12-.4zM80.173 72v-1.22h1.16V72h-1.16zm0-3.7v-1.22h1.16v1.22h-1.16zm7.67 5.248v-1.56c-.889-.104-1.56-.396-2.017-.876-.456-.488-.684-1.116-.684-1.884h1.536c0 .248.06.484.18.708.128.224.332.408.612.552.28.136.648.204 1.104.204.6 0 1.056-.112 1.368-.336.312-.232.468-.524.468-.876 0-.312-.136-.572-.408-.78-.272-.208-.684-.336-1.236-.384l-.672-.06c-.832-.072-1.492-.32-1.98-.744s-.732-1.024-.732-1.8c0-.704.212-1.26.636-1.668.432-.416 1.024-.672 1.776-.768v-1.2h1.392v1.212c.752.112 1.332.4 1.74.864.416.464.624 1.068.624 1.812h-1.536c0-.36-.128-.68-.384-.96-.256-.28-.648-.42-1.176-.42-.48 0-.852.108-1.116.324a.978.978 0 00-.396.804c0 .28.1.528.3.744.208.216.54.344.996.384l.672.06c.92.088 1.656.348 2.208.78.56.432.84 1.032.84 1.8 0 .72-.24 1.3-.72 1.74-.472.432-1.14.692-2.004.78v1.548h-1.392zM93.246 72v-1.68c0-.552.136-1 .408-1.344.272-.344.74-.66 1.404-.948l1.488-.66c.368-.16.648-.364.84-.612.2-.248.3-.564.3-.948 0-.424-.128-.76-.384-1.008-.248-.256-.604-.384-1.068-.384-.464 0-.824.132-1.08.396-.248.256-.372.608-.372 1.056h-1.644c0-.536.112-1.02.336-1.452.232-.44.576-.788 1.032-1.044.464-.256 1.04-.384 1.728-.384.68 0 1.248.124 1.704.372.464.248.812.58 1.044.996.232.416.348.872.348 1.368v.156c0 .664-.184 1.216-.552 1.656-.368.432-.908.804-1.62 1.116l-1.488.66c-.288.12-.488.248-.6.384a.845.845 0 00-.156.528v.324h4.452V72h-6.12zm7.523 0v-1.68c0-.552.136-1 .408-1.344.272-.344.74-.66 1.404-.948l1.488-.66c.368-.16.648-.364.84-.612.2-.248.3-.564.3-.948 0-.424-.128-.76-.384-1.008-.248-.256-.604-.384-1.068-.384-.464 0-.824.132-1.08.396-.248.256-.372.608-.372 1.056h-1.644c0-.536.112-1.02.336-1.452.232-.44.576-.788 1.032-1.044.464-.256 1.04-.384 1.728-.384.68 0 1.248.124 1.704.372.464.248.812.58 1.044.996.232.416.348.872.348 1.368v.156c0 .664-.184 1.216-.552 1.656-.368.432-.908.804-1.62 1.116l-1.488.66c-.288.12-.488.248-.6.384a.845.845 0 00-.156.528v.324h4.452V72h-6.12zm8.196 1.992l-1.296-.492 1.224-3.48 1.392.516-1.32 3.456zm6.318-1.764c-.688 0-1.276-.112-1.764-.336a3.25 3.25 0 01-1.176-.936 4.178 4.178 0 01-.66-1.368 6.334 6.334 0 01-.204-1.632v-.672c0-.8.132-1.524.396-2.172a3.453 3.453 0 011.248-1.548c.568-.384 1.288-.576 2.16-.576.864 0 1.576.192 2.136.576.56.384.972.9 1.236 1.548.272.648.408 1.372.408 2.172v.672c0 .576-.072 1.12-.216 1.632a3.882 3.882 0 01-.66 1.368 3.142 3.142 0 01-1.164.936c-.48.224-1.06.336-1.74.336zm0-1.56c.704 0 1.224-.244 1.56-.732.344-.496.516-1.264.516-2.304 0-1.096-.172-1.884-.516-2.364-.344-.48-.864-.72-1.56-.72-.704 0-1.232.24-1.584.72-.344.472-.516 1.252-.516 2.34 0 1.056.168 1.832.504 2.328.344.488.876.732 1.596.732zm9.071 1.56c-.688 0-1.276-.112-1.764-.336a3.25 3.25 0 01-1.176-.936 4.178 4.178 0 01-.66-1.368 6.334 6.334 0 01-.204-1.632v-.672c0-.8.132-1.524.396-2.172a3.453 3.453 0 011.248-1.548c.568-.384 1.288-.576 2.16-.576.864 0 1.576.192 2.136.576.56.384.972.9 1.236 1.548.272.648.408 1.372.408 2.172v.672c0 .576-.072 1.12-.216 1.632a3.882 3.882 0 01-.66 1.368 3.142 3.142 0 01-1.164.936c-.48.224-1.06.336-1.74.336zm0-1.56c.704 0 1.224-.244 1.56-.732.344-.496.516-1.264.516-2.304 0-1.096-.172-1.884-.516-2.364-.344-.48-.864-.72-1.56-.72-.704 0-1.232.24-1.584.72-.344.472-.516 1.252-.516 2.34 0 1.056.168 1.832.504 2.328.344.488.876.732 1.596.732zm9.07 1.56c-.688 0-1.276-.112-1.764-.336a3.25 3.25 0 01-1.176-.936 4.178 4.178 0 01-.66-1.368 6.334 6.334 0 01-.204-1.632v-.672c0-.8.132-1.524.396-2.172a3.453 3.453 0 011.248-1.548c.568-.384 1.288-.576 2.16-.576.864 0 1.576.192 2.136.576.56.384.972.9 1.236 1.548.272.648.408 1.372.408 2.172v.672c0 .576-.072 1.12-.216 1.632a3.882 3.882 0 01-.66 1.368 3.142 3.142 0 01-1.164.936c-.48.224-1.06.336-1.74.336zm0-1.56c.704 0 1.224-.244 1.56-.732.344-.496.516-1.264.516-2.304 0-1.096-.172-1.884-.516-2.364-.344-.48-.864-.72-1.56-.72-.704 0-1.232.24-1.584.72-.344.472-.516 1.252-.516 2.34 0 1.056.168 1.832.504 2.328.344.488.876.732 1.596.732z" fill="#6C7193"/><path d="M90 32l-.093.84a8 8 0 01-7.068 7.067L82 40l.84.093a8 8 0 017.067 7.068L90 48l.093-.84a8 8 0 017.068-7.067L98 40l-.84-.093a8 8 0 01-7.067-7.068L90 32z" fill="#DDD1F3"/><defs><radialGradient id="paint1_radial_175_3344" cx="0" cy="0" r="1" gradientUnits="userSpaceOnUse" gradientTransform="matrix(94.48552 -56.94919 73.51654 121.97274 265.514 74.496)"><stop stop-color="#fff" stop-opacity="0"/><stop offset="1" stop-color="#fff"/></radialGradient><radialGradient id="paint3_radial_175_3344" cx="0" cy="0" r="1" gradientUnits="userSpaceOnUse" gradientTransform="rotate(-11.36 736.352 -2188.565) scale(96.3735 54.3418)"><stop stop-color="#fff" stop-opacity="0"/><stop offset="1" stop-color="#fff"/></radialGradient><radialGradient id="paint5_radial_175_3344" cx="0" cy="0" r="1" gradientUnits="userSpaceOnUse" gradientTransform="rotate(-21.891 271.125 -176.922) scale(101.828 102.862)"><stop stop-color="#fff" stop-opacity="0"/><stop offset="1" stop-color="#fff"/></radialGradient><linearGradient id="paint0_linear_175_3344" x1="345.171" y1="19.161" x2="267.149" y2="94.97" gradientUnits="userSpaceOnUse"><stop stop-color="#E4E0FC"/><stop offset="1" stop-color="#E4E0FC" stop-opacity="0"/></linearGradient><linearGradient id="paint2_linear_175_3344" x1="525.171" y1="83.72" x2="509.199" y2="130.277" gradientUnits="userSpaceOnUse"><stop stop-color="#E4E0FC"/><stop offset="1" stop-color="#E4E0FC" stop-opacity="0"/></linearGradient><linearGradient id="paint4_linear_175_3344" x1="165.171" y1="51.44" x2="116.621" y2="122.201" gradientUnits="userSpaceOnUse"><stop stop-color="#E4E0FC"/><stop offset="1" stop-color="#E4E0FC" stop-opacity="0"/></linearGradient></defs></svg>