<svg width="200" height="200" fill="none" xmlns="http://www.w3.org/2000/svg"><g clip-path="url(#clip0_175_3261)" fill="#fff"><path d="M8.655 180.799l-8.785-32.13h8.013l6.59 25.384h1.246l4.807-24.319h9.497l5.52 24.319h1.247l5.876-25.384h7.48l-7.776 32.13H30.558l-5.342-23.077-4.749 23.077H8.655zm56.723.828c-3.562 0-6.41-.907-8.548-2.722-2.097-1.814-3.145-4.359-3.145-7.633 0-3.511 1.266-6.095 3.798-7.751 2.572-1.697 6.015-2.545 10.328-2.545H74.4v-.296c0-3.668-1.86-5.503-5.58-5.503a154.814 154.814 0 00-7.776.237c-1.384.04-2.63.099-3.739.178v-6.983a107.61 107.61 0 014.808-.295c1.9-.079 3.64-.119 5.224-.119 4.946 0 8.665 1.006 11.159 3.018 2.532 1.972 3.798 5.187 3.798 9.645v19.941h-6.529v-6.154c-1.464 4.655-4.927 6.982-10.387 6.982zm2.315-5.858a8.404 8.404 0 003.145-.592c.99-.433 1.801-1.144 2.434-2.13.673-1.025 1.049-2.406 1.128-4.142v-3.018h-6.707c-1.9 0-3.364.474-4.393 1.421-.989.907-1.484 2.09-1.484 3.55 0 1.499.495 2.702 1.484 3.609 1.03.868 2.493 1.302 4.393 1.302zm36.023 17.692c-3.285 0-6.352-.216-9.2-.65v-6.864a66.29 66.29 0 004.51.473c1.662.118 3.206.178 4.63.178 3.957 0 6.806-.73 8.548-2.19 1.78-1.42 2.671-3.728 2.671-6.923v-2.84c-1.108 2.091-2.632 3.688-4.571 4.793-1.899 1.065-4.095 1.597-6.588 1.597-2.968 0-5.56-.71-7.776-2.13-2.177-1.459-3.878-3.392-5.105-5.799-1.226-2.445-1.84-5.187-1.84-8.224v-1.243c0-3.038.633-5.759 1.9-8.166 1.305-2.406 3.086-4.3 5.342-5.68 2.295-1.42 4.946-2.13 7.953-2.13 2.81 0 5.224.651 7.242 1.952 2.058 1.302 3.621 3.176 4.689 5.622v-6.568h6.529v28.343c0 5.877-1.523 10.079-4.57 12.603-3.047 2.564-7.835 3.846-14.364 3.846zm2.374-19.467c1.583 0 3.027-.355 4.333-1.065s2.354-1.736 3.146-3.077c.791-1.341 1.187-2.959 1.187-4.852v-2.071c0-1.815-.416-3.353-1.247-4.615a7.427 7.427 0 00-3.205-2.841 9.101 9.101 0 00-4.214-1.006c-2.612 0-4.749.908-6.41 2.722-1.623 1.775-2.434 4.142-2.434 7.101 0 2.998.81 5.365 2.433 7.1 1.662 1.736 3.799 2.604 6.411 2.604zm25.56 6.805v-32.13h6.529v7.869c1.345-5.917 4.847-8.875 10.506-8.875h.356c5.105 0 8.468 2.426 10.091 7.278 1.583-4.852 4.946-7.278 10.09-7.278h.357c3.68 0 6.469 1.262 8.369 3.787 1.939 2.524 2.908 6.193 2.908 11.006v18.343h-8.25v-19.113c0-2.012-.515-3.609-1.544-4.793-1.028-1.222-2.493-1.834-4.392-1.834-1.939 0-3.482.631-4.63 1.894-1.108 1.222-1.662 2.879-1.662 4.97v18.876h-8.25v-19.113c0-2.012-.515-3.609-1.544-4.793-1.028-1.222-2.493-1.834-4.392-1.834-1.939 0-3.482.631-4.63 1.894-1.108 1.222-1.662 2.879-1.662 4.97v18.876h-8.25zm62.593-35.977c-1.622 0-2.829-.414-3.62-1.242-.752-.868-1.128-1.953-1.128-3.255 0-1.301.376-2.367 1.128-3.195.791-.828 1.998-1.243 3.62-1.243 1.583 0 2.751.415 3.503 1.243.791.828 1.187 1.894 1.187 3.195 0 1.302-.396 2.387-1.187 3.255-.752.828-1.92 1.242-3.503 1.242zm-3.027 35.977v-25.977h-4.511v-6.153h12.762v32.13h-8.251z"/><path fill-rule="evenodd" clip-rule="evenodd" d="M63.95 9.27a7.398 7.398 0 01-4.623 6.858v21.358C69.93 27.446 84.246 21.287 100 21.287c32.674 0 59.161 26.487 59.161 59.161a58.91 58.91 0 01-13.196 37.248c-.506.625-.07 1.576.735 1.576h15.234a7.395 7.395 0 010 14.79H123.11a7.395 7.395 0 01-3.691-13.804c.029-.017.018-.061-.015-.061-.034 0-.045-.046-.014-.061 14.669-7.181 24.771-22.255 24.771-39.688 0-24.39-19.771-44.16-44.161-44.16s-44.16 19.77-44.16 44.16c0 17.433 10.101 32.507 24.77 39.688.031.015.02.061-.013.061s-.045.044-.016.061a7.395 7.395 0 01-3.69 13.804H38.066a7.395 7.395 0 010-14.79h15.235c.804 0 1.24-.951.734-1.576a58.915 58.915 0 01-13.196-37.248 58.912 58.912 0 0112.942-36.933V16.128a7.398 7.398 0 012.773-14.253 7.395 7.395 0 017.395 7.395zm28.655 63.783a7.395 7.395 0 00-14.79 0v14.79h14.79v-14.79zm22.185-7.395a7.395 7.395 0 017.396 7.395v14.79h-14.791v-14.79a7.395 7.395 0 017.395-7.395z"/></g><defs><clipPath id="clip0_175_3261"><path fill="#fff" d="M0 0h200v200H0z"/></clipPath></defs></svg>