<svg width="78" height="66" fill="none" xmlns="http://www.w3.org/2000/svg"><path d="M24 10l.6 13.843a10 10 0 009.557 9.557L48 34l-13.843.6a10 10 0 00-9.557 9.557L24 58l-.6-13.843a10 10 0 00-9.557-9.557L0 34l13.842-.6a10 10 0 009.558-9.557L24 10zM51 0l.13 3.003a3 3 0 002.867 2.867L57 6l-3.003.13a3 3 0 00-2.867 2.867L51 12l-.13-3.003a3 3 0 00-2.867-2.867L45 6l3.003-.13a3 3 0 002.867-2.867L51 0zm17 46l.217 5.004a5 5 0 004.779 4.78L78 56l-5.004.217a5 5 0 00-4.78 4.779L68 66l-.217-5.004a5 5 0 00-4.779-4.78L58 56l5.004-.217a5 5 0 004.78-4.779L68 46z" fill="#92A2F6"/></svg>