<svg width="184" height="170" fill="none" xmlns="http://www.w3.org/2000/svg"><path d="M8.5 153a14.386 14.386 0 008.5 8.5 14.386 14.386 0 00-8.5 8.5 14.386 14.386 0 00-8.5-8.5 14.386 14.386 0 008.5-8.5zm49-153l1.3 29.997c.404 9.328 7.874 16.8 17.204 17.204L106 48.5l-29.996 1.3c-9.33.404-16.8 7.875-17.205 17.204L57.5 97l-1.3-29.996c-.404-9.33-7.875-16.8-17.204-17.205L9 48.5l29.996-1.3c9.33-.404 16.8-7.875 17.205-17.204L57.5 0zM162 97l.596 13.758a8 8 0 007.646 7.646L184 119l-13.758.596a8 8 0 00-7.646 7.646L162 141l-.596-13.758a8 8 0 00-7.646-7.646L140 119l13.758-.596a8 8 0 007.646-7.646L162 97z" fill="#DDD1F3"/></svg>