<svg width="70" height="96" fill="none" xmlns="http://www.w3.org/2000/svg"><g clip-path="url(#clip0_175_4941)"><path d="M5.907 74.782a8.09 8.09 0 004.78 4.78 8.091 8.091 0 00-4.78 4.78 8.091 8.091 0 00-4.78-4.78 8.09 8.09 0 004.78-4.78z" fill="#E8FBFF"/><path d="M5.907 74.782a8.09 8.09 0 004.78 4.78 8.091 8.091 0 00-4.78 4.78 8.091 8.091 0 00-4.78-4.78 8.09 8.09 0 004.78-4.78z" fill="url(#paint0_radial_175_4941)"/><path d="M5.907 74.782a8.09 8.09 0 004.78 4.78 8.091 8.091 0 00-4.78 4.78 8.091 8.091 0 00-4.78-4.78 8.09 8.09 0 004.78-4.78z" fill="url(#paint1_radial_175_4941)"/><path d="M5.907 74.782a8.09 8.09 0 004.78 4.78 8.091 8.091 0 00-4.78 4.78 8.091 8.091 0 00-4.78-4.78 8.09 8.09 0 004.78-4.78z" fill="url(#paint2_radial_175_4941)"/><path d="M5.907 74.782a8.09 8.09 0 004.78 4.78 8.091 8.091 0 00-4.78 4.78 8.091 8.091 0 00-4.78-4.78 8.09 8.09 0 004.78-4.78z" fill="url(#paint3_radial_175_4941)" fill-opacity=".4"/><path d="M27.42-.109l.443 10.237c.404 9.33 7.875 16.8 17.205 17.204l10.237.444-10.237.443c-9.33.404-16.8 7.875-17.205 17.204l-.443 10.238-.444-10.238c-.404-9.329-7.875-16.8-17.204-17.204l-10.237-.443 10.237-.444c9.33-.404 16.8-7.875 17.205-17.204L27.42-.109z" fill="#E8FBFF"/><path d="M27.42-.109l.443 10.237c.404 9.33 7.875 16.8 17.205 17.204l10.237.444-10.237.443c-9.33.404-16.8 7.875-17.205 17.204l-.443 10.238-.444-10.238c-.404-9.329-7.875-16.8-17.204-17.204l-10.237-.443 10.237-.444c9.33-.404 16.8-7.875 17.205-17.204L27.42-.109z" fill="url(#paint4_radial_175_4941)"/><path d="M27.42-.109l.443 10.237c.404 9.33 7.875 16.8 17.205 17.204l10.237.444-10.237.443c-9.33.404-16.8 7.875-17.205 17.204l-.443 10.238-.444-10.238c-.404-9.329-7.875-16.8-17.204-17.204l-10.237-.443 10.237-.444c9.33-.404 16.8-7.875 17.205-17.204L27.42-.109z" fill="url(#paint5_radial_175_4941)"/><path d="M27.42-.109l.443 10.237c.404 9.33 7.875 16.8 17.205 17.204l10.237.444-10.237.443c-9.33.404-16.8 7.875-17.205 17.204l-.443 10.238-.444-10.238c-.404-9.329-7.875-16.8-17.204-17.204l-10.237-.443 10.237-.444c9.33-.404 16.8-7.875 17.205-17.204L27.42-.109z" fill="url(#paint6_radial_175_4941)"/><path d="M27.42-.109l.443 10.237c.404 9.33 7.875 16.8 17.205 17.204l10.237.444-10.237.443c-9.33.404-16.8 7.875-17.205 17.204l-.443 10.238-.444-10.238c-.404-9.329-7.875-16.8-17.204-17.204l-10.237-.443 10.237-.444c9.33-.404 16.8-7.875 17.205-17.204L27.42-.109z" fill="url(#paint7_radial_175_4941)" fill-opacity=".4"/><path d="M57.693 70.798l.211 4.89a8 8 0 007.647 7.645l4.889.212-4.89.212a8 8 0 00-7.646 7.646l-.211 4.89-.212-4.89a8 8 0 00-7.646-7.646l-4.89-.212 4.89-.212a8 8 0 007.646-7.646l.212-4.889z" fill="#E8FBFF"/><path d="M57.693 70.798l.211 4.89a8 8 0 007.647 7.645l4.889.212-4.89.212a8 8 0 00-7.646 7.646l-.211 4.89-.212-4.89a8 8 0 00-7.646-7.646l-4.89-.212 4.89-.212a8 8 0 007.646-7.646l.212-4.889z" fill="url(#paint8_radial_175_4941)"/><path d="M57.693 70.798l.211 4.89a8 8 0 007.647 7.645l4.889.212-4.89.212a8 8 0 00-7.646 7.646l-.211 4.89-.212-4.89a8 8 0 00-7.646-7.646l-4.89-.212 4.89-.212a8 8 0 007.646-7.646l.212-4.889z" fill="url(#paint9_radial_175_4941)"/><path d="M57.693 70.798l.211 4.89a8 8 0 007.647 7.645l4.889.212-4.89.212a8 8 0 00-7.646 7.646l-.211 4.89-.212-4.89a8 8 0 00-7.646-7.646l-4.89-.212 4.89-.212a8 8 0 007.646-7.646l.212-4.889z" fill="url(#paint10_radial_175_4941)"/><path d="M57.693 70.798l.211 4.89a8 8 0 007.647 7.645l4.889.212-4.89.212a8 8 0 00-7.646 7.646l-.211 4.89-.212-4.89a8 8 0 00-7.646-7.646l-4.89-.212 4.89-.212a8 8 0 007.646-7.646l.212-4.889z" fill="url(#paint11_radial_175_4941)" fill-opacity=".4"/></g><defs><radialGradient id="paint1_radial_175_4941" cx="0" cy="0" r="1" gradientUnits="userSpaceOnUse" gradientTransform="matrix(-9.3553 2.27487 -3.36326 -13.83126 7.626 81.353)"><stop stop-color="#DDD1F3"/><stop offset="1" stop-color="#B3B3FF" stop-opacity="0"/></radialGradient><radialGradient id="paint6_radial_175_4941" cx="0" cy="0" r="1" gradientUnits="userSpaceOnUse" gradientTransform="rotate(103.509 -.26 -3.542) scale(57.1927 60.9039)"><stop stop-color="#99E6E5"/><stop offset="1" stop-color="#B3B3FF" stop-opacity="0"/></radialGradient><radialGradient id="paint2_radial_175_4941" cx="0" cy="0" r="1" gradientUnits="userSpaceOnUse" gradientTransform="matrix(-2.2903 9.53321 -10.15184 -2.43893 .561 74.094)"><stop stop-color="#99E6E5"/><stop offset="1" stop-color="#B3B3FF" stop-opacity="0"/></radialGradient><radialGradient id="paint3_radial_175_4941" cx="0" cy="0" r="1" gradientUnits="userSpaceOnUse" gradientTransform="matrix(-2.80256 4.5097 -5.60597 -3.48385 4.148 78.034)"><stop offset=".055" stop-color="#fff" stop-opacity="0"/><stop offset="1" stop-color="#fff"/></radialGradient><radialGradient id="paint4_radial_175_4941" cx="0" cy="0" r="1" gradientUnits="userSpaceOnUse" gradientTransform="matrix(-32.4647 60.20536 -68.88947 -37.14746 16.695 20.022)"><stop stop-color="#98A8FF"/><stop offset="1" stop-color="#B3B3FF" stop-opacity="0"/></radialGradient><radialGradient id="paint5_radial_175_4941" cx="0" cy="0" r="1" gradientUnits="userSpaceOnUse" gradientTransform="matrix(-54.57267 13.27009 -19.61901 -80.68234 37.448 38.223)"><stop stop-color="#DDD1F3"/><stop offset="1" stop-color="#B3B3FF" stop-opacity="0"/></radialGradient><radialGradient id="paint0_radial_175_4941" cx="0" cy="0" r="1" gradientUnits="userSpaceOnUse" gradientTransform="matrix(-5.56537 10.3209 -11.80965 -6.36815 4.069 78.233)"><stop stop-color="#98A8FF"/><stop offset="1" stop-color="#B3B3FF" stop-opacity="0"/></radialGradient><radialGradient id="paint7_radial_175_4941" cx="0" cy="0" r="1" gradientUnits="userSpaceOnUse" gradientTransform="matrix(-16.34829 26.30657 -32.70149 -20.32243 17.159 18.862)"><stop offset=".055" stop-color="#fff" stop-opacity="0"/><stop offset="1" stop-color="#fff"/></radialGradient><radialGradient id="paint8_radial_175_4941" cx="0" cy="0" r="1" gradientUnits="userSpaceOnUse" gradientTransform="matrix(-14.84098 27.52241 -31.49232 -16.98169 52.79 80)"><stop stop-color="#98A8FF"/><stop offset="1" stop-color="#B3B3FF" stop-opacity="0"/></radialGradient><radialGradient id="paint9_radial_175_4941" cx="0" cy="0" r="1" gradientUnits="userSpaceOnUse" gradientTransform="matrix(-24.94754 6.06633 -8.96868 -36.88333 62.277 88.321)"><stop stop-color="#DDD1F3"/><stop offset="1" stop-color="#B3B3FF" stop-opacity="0"/></radialGradient><radialGradient id="paint10_radial_175_4941" cx="0" cy="0" r="1" gradientUnits="userSpaceOnUse" gradientTransform="rotate(103.509 -5.461 51.601) scale(26.1453 27.8418)"><stop stop-color="#99E6E5"/><stop offset="1" stop-color="#B3B3FF" stop-opacity="0"/></radialGradient><radialGradient id="paint11_radial_175_4941" cx="0" cy="0" r="1" gradientUnits="userSpaceOnUse" gradientTransform="rotate(121.859 4.411 54.467) scale(14.1589 17.6008)"><stop offset=".055" stop-color="#fff" stop-opacity="0"/><stop offset="1" stop-color="#fff"/></radialGradient><clipPath id="clip0_175_4941"><path fill="#fff" d="M0 0h70v96H0z"/></clipPath></defs></svg>