<svg width="40" height="40" fill="none" xmlns="http://www.w3.org/2000/svg"><path d="M1.76 36.36L0 29.665h1.606l1.32 5.29h.25l.964-5.068h1.903l1.106 5.069h.25l1.178-5.291h1.498L8.517 36.36H6.15l-1.07-4.81-.952 4.81H1.76zm11.368.173c-.714 0-1.285-.189-1.713-.567-.42-.378-.63-.908-.63-1.59 0-.733.253-1.271.76-1.616.516-.354 1.206-.53 2.07-.53h1.321v-.063c0-.764-.373-1.146-1.118-1.146a29.981 29.981 0 00-1.558.05c-.278.007-.528.02-.75.036v-1.455a24.473 24.473 0 012.01-.086c.992 0 1.737.209 2.237.628.507.411.761 1.081.761 2.01v4.157H15.21v-1.283c-.294.97-.988 1.455-2.082 1.455zm.464-1.22c.222 0 .432-.042.63-.124.199-.09.361-.238.488-.444.135-.214.21-.501.226-.863v-.63h-1.344c-.38 0-.674.1-.88.297-.199.189-.298.436-.298.74 0 .312.1.563.298.752.206.181.5.271.88.271zM20.811 39c-.658 0-1.273-.045-1.844-.136v-1.43a13.196 13.196 0 001.832.135c.793 0 1.364-.152 1.713-.456.357-.296.535-.777.535-1.443v-.592a2.387 2.387 0 01-.916 1c-.38.221-.82.332-1.32.332-.595 0-1.114-.148-1.558-.444a3.116 3.116 0 01-1.023-1.209 3.896 3.896 0 01-.369-1.714v-.259c0-.633.127-1.2.38-1.702a3.037 3.037 0 011.071-1.184c.46-.296.991-.444 1.594-.444.563 0 1.047.136 1.451.407.413.272.726.662.94 1.172v-1.37h1.309v5.908c0 1.226-.306 2.101-.916 2.627-.61.535-1.57.802-2.879.802zm.476-4.058c.317 0 .607-.074.868-.221.262-.148.472-.362.63-.642.16-.28.238-.617.238-1.011v-.432c0-.378-.083-.699-.25-.962a1.512 1.512 0 00-.642-.592 1.765 1.765 0 00-.844-.21c-.524 0-.952.19-1.285.568-.325.37-.488.863-.488 1.48 0 .625.163 1.118.488 1.48.333.362.761.542 1.285.542zm5.123 1.418v-6.696h1.308v1.64c.27-1.233.971-1.85 2.105-1.85h.072c1.023 0 1.697.506 2.022 1.517.317-1.011.991-1.517 2.022-1.517h.071c.738 0 1.297.263 1.678.79.388.526.582 1.29.582 2.294v3.823h-1.653v-3.984c0-.42-.103-.752-.31-.999-.206-.255-.499-.382-.88-.382-.388 0-.697.131-.928.395-.221.254-.333.6-.333 1.035v3.935h-1.653v-3.984c0-.42-.103-.752-.31-.999-.205-.255-.499-.382-.88-.382-.388 0-.697.131-.927.395-.222.254-.333.6-.333 1.035v3.935h-1.654zm12.543-7.498c-.325 0-.567-.086-.725-.259a1.024 1.024 0 01-.226-.678c0-.271.075-.493.226-.666.158-.173.4-.259.725-.259.317 0 .551.086.702.259.159.173.238.395.238.666s-.08.497-.238.678c-.15.173-.385.26-.702.26zm-.606 7.499v-5.414h-.904v-1.283H40v6.697h-1.653z" fill="#92A2F6"/><path fill-rule="evenodd" clip-rule="evenodd" d="M12.72 1.51c0 .634-.386 1.177-.933 1.401v4.363A11.834 11.834 0 0120 3.965c6.598 0 11.947 5.41 11.947 12.084 0 2.883-.999 5.53-2.665 7.608-.102.128-.014.322.148.322h3.077c.824 0 1.493.676 1.493 1.51 0 .835-.669 1.511-1.493 1.511h-7.84a1.502 1.502 0 01-1.494-1.51c0-.56.301-1.049.748-1.31.006-.003.004-.012-.003-.012s-.009-.01-.003-.013a9.03 9.03 0 005.003-8.106c0-4.982-3.993-9.02-8.918-9.02-4.925 0-8.918 4.038-8.918 9.02a9.03 9.03 0 005.003 8.106c.006.003.004.013-.003.013s-.01.009-.003.012c.447.261.748.75.748 1.31 0 .834-.669 1.51-1.494 1.51h-7.84A1.502 1.502 0 016 25.49c0-.835.669-1.511 1.493-1.511h3.077c.162 0 .25-.194.148-.322a12.12 12.12 0 01-2.665-7.608c0-2.854.978-5.476 2.614-7.544V2.911a1.511 1.511 0 01-.934-1.4C9.733.675 10.402 0 11.227 0c.824 0 1.493.676 1.493 1.51zm5.787 13.029c0-.835-.669-1.511-1.494-1.511-.824 0-1.493.676-1.493 1.51v3.021h2.987v-3.02zm4.48-1.511c.824 0 1.493.676 1.493 1.51v3.021h-2.987v-3.02c0-.835.669-1.511 1.494-1.511z" fill="#92A2F6"/></svg>