<svg width="119" height="94" viewBox="0 0 119 94" fill="none" xmlns="http://www.w3.org/2000/svg">
<path d="M10 74L9.61842 77.4343C9.25687 80.6882 6.68818 83.2569 3.43425 83.6184L0 84L3.43425 84.3816C6.68818 84.7431 9.25687 87.3118 9.61842 90.5657L10 94L10.3816 90.5657C10.7431 87.3118 13.3118 84.7431 16.5657 84.3816L20 84L16.5657 83.6184C13.3118 83.2569 10.7431 80.6882 10.3816 77.4343L10 74Z" fill="#92A2F6"/>
<path d="M79 0L77.6567 31.0104C77.4771 35.1567 74.1567 38.4771 70.0104 38.6567L39 40L70.0104 41.3433C74.1567 41.5229 77.4771 44.8433 77.6567 48.9896L79 80L80.3433 48.9896C80.5229 44.8433 83.8433 41.5229 87.9896 41.3433L119 40L87.9896 38.6567C83.8433 38.4771 80.5229 35.1567 80.3433 31.0104L79 0Z" fill="#92A2F6"/>
</svg>
