<svg width="40" height="40" viewBox="0 0 40 40" fill="none" xmlns="http://www.w3.org/2000/svg">
<path d="M1.7605 36.3607L0 29.6639H1.60587L2.92624 34.9548H3.17605L4.13957 29.8859H6.04281L7.14908 34.9548H7.39888L8.57651 29.6639H10.0753L8.51704 36.3607H6.14987L5.07929 31.5509L4.12767 36.3607H1.7605Z" fill="#6C7193"/>
<path d="M13.128 36.5334C12.4142 36.5334 11.8433 36.3443 11.415 35.9661C10.9947 35.5879 10.7846 35.0576 10.7846 34.3751C10.7846 33.6434 11.0383 33.1048 11.5459 32.7595C12.0613 32.406 12.7513 32.2292 13.6157 32.2292H14.936V32.1675C14.936 31.4029 14.5633 31.0206 13.8179 31.0206C13.6196 31.0206 13.3817 31.0247 13.1042 31.0329C12.8266 31.0411 12.5451 31.0534 12.2596 31.0699C11.982 31.0781 11.7322 31.0904 11.5102 31.1069V29.6516C11.7798 29.6269 12.101 29.6064 12.4737 29.5899C12.8544 29.5735 13.2033 29.5653 13.5205 29.5653C14.5118 29.5653 15.2572 29.7749 15.7568 30.1942C16.2643 30.6053 16.5181 31.2754 16.5181 32.2045V36.3607H15.2096V35.0781C14.9162 36.0483 14.2223 36.5334 13.128 36.5334ZM13.5919 35.3124C13.8139 35.3124 14.0241 35.2713 14.2223 35.1891C14.4206 35.0987 14.5831 34.9507 14.71 34.7451C14.8448 34.5313 14.9202 34.2436 14.936 33.8818V33.2528H13.5919C13.2112 33.2528 12.9178 33.3515 12.7116 33.5488C12.5134 33.7379 12.4142 33.9846 12.4142 34.2888C12.4142 34.6012 12.5134 34.852 12.7116 35.0411C12.9178 35.222 13.2112 35.3124 13.5919 35.3124Z" fill="#6C7193"/>
<path d="M20.811 39C20.1528 39 19.5382 38.9548 18.9672 38.8643V37.4337C19.2448 37.4748 19.5462 37.5077 19.8713 37.5324C20.2044 37.557 20.5136 37.5694 20.7991 37.5694C21.5921 37.5694 22.1631 37.4173 22.512 37.1131C22.8689 36.8171 23.0473 36.3361 23.0473 35.6701V35.0781C22.8253 35.5139 22.52 35.8469 22.1314 36.0771C21.7507 36.2991 21.3106 36.4101 20.811 36.4101C20.2163 36.4101 19.6968 36.2621 19.2527 35.9661C18.8166 35.6619 18.4756 35.259 18.2297 34.7575C17.9839 34.2477 17.861 33.6763 17.861 33.0432V32.7842C17.861 32.1511 17.9879 31.5838 18.2416 31.0822C18.5033 30.5807 18.8602 30.186 19.3122 29.8983C19.7722 29.6023 20.3035 29.4543 20.9062 29.4543C21.4692 29.4543 21.953 29.5899 22.3574 29.8613C22.7698 30.1326 23.083 30.5231 23.2971 31.0329V29.6639H24.6056V35.5714C24.6056 36.7965 24.3003 37.6721 23.6897 38.1984C23.0791 38.7328 22.1195 39 20.811 39ZM21.2868 34.9424C21.604 34.9424 21.8935 34.8684 22.1552 34.7205C22.4169 34.5725 22.627 34.3587 22.7856 34.0791C22.9442 33.7996 23.0235 33.4625 23.0235 33.0678V32.6362C23.0235 32.258 22.9403 31.9373 22.7737 31.6742C22.6151 31.4111 22.401 31.2138 22.1314 31.0822C21.8697 30.9424 21.5882 30.8726 21.2868 30.8726C20.7634 30.8726 20.3352 31.0617 20.0021 31.4399C19.677 31.8099 19.5144 32.3032 19.5144 32.9198C19.5144 33.5447 19.677 34.038 20.0021 34.3998C20.3352 34.7616 20.7634 34.9424 21.2868 34.9424Z" fill="#6C7193"/>
<path d="M26.4092 36.3607V29.6639H27.7176V31.3042C27.9873 30.0709 28.6891 29.4543 29.8231 29.4543H29.8945C30.9175 29.4543 31.5915 29.9599 31.9167 30.9712C32.2339 29.9599 32.908 29.4543 33.9389 29.4543H34.0103C34.7478 29.4543 35.3068 29.7174 35.6875 30.2436C36.0761 30.7698 36.2704 31.5344 36.2704 32.5375V36.3607H34.6169V32.3772C34.6169 31.9579 34.5138 31.6249 34.3076 31.3782C34.1014 31.1233 33.808 30.9959 33.4274 30.9959C33.0388 30.9959 32.7295 31.1274 32.4995 31.3905C32.2775 31.6454 32.1665 31.9908 32.1665 32.4265V36.3607H30.513V32.3772C30.513 31.9579 30.4099 31.6249 30.2038 31.3782C29.9976 31.1233 29.7041 30.9959 29.3235 30.9959C28.9349 30.9959 28.6256 31.1274 28.3957 31.3905C28.1736 31.6454 28.0626 31.9908 28.0626 32.4265V36.3607H26.4092Z" fill="#6C7193"/>
<path d="M38.9532 28.8623C38.6281 28.8623 38.3862 28.776 38.2276 28.6033C38.0769 28.4224 38.0016 28.1963 38.0016 27.925C38.0016 27.6536 38.0769 27.4317 38.2276 27.259C38.3862 27.0863 38.6281 27 38.9532 27C39.2704 27 39.5044 27.0863 39.655 27.259C39.8136 27.4317 39.8929 27.6536 39.8929 27.925C39.8929 28.1963 39.8136 28.4224 39.655 28.6033C39.5044 28.776 39.2704 28.8623 38.9532 28.8623ZM38.3466 36.3607V30.9466H37.4425V29.6639H40V36.3607H38.3466Z" fill="#6C7193"/>
<path fill-rule="evenodd" clip-rule="evenodd" d="M12.72 1.51049C12.72 2.1444 12.3339 2.68711 11.7867 2.91118V7.27376C13.9276 5.2229 16.8186 3.96503 20 3.96503C26.598 3.96503 31.9467 9.37519 31.9467 16.049C31.9467 18.9323 30.9482 21.5799 29.282 23.6571C29.1797 23.7847 29.2679 23.979 29.4303 23.979H32.5067C33.3314 23.979 34 24.6553 34 25.4895C34 26.3237 33.3314 27 32.5067 27H24.6667C23.8419 27 23.1733 26.3237 23.1733 25.4895C23.1733 24.9298 23.4743 24.4412 23.9214 24.1803C23.9272 24.1769 23.9249 24.1678 23.9182 24.1678C23.9114 24.1678 23.9092 24.1584 23.9154 24.1554C26.8777 22.6888 28.9176 19.6098 28.9176 16.049C28.9176 11.0673 24.9251 7.02887 20 7.02887C15.0749 7.02887 11.0824 11.0673 11.0824 16.049C11.0824 19.6098 13.1223 22.6888 16.0846 24.1554C16.0908 24.1584 16.0886 24.1678 16.0818 24.1678C16.0751 24.1678 16.0728 24.1769 16.0786 24.1803C16.5257 24.4412 16.8267 24.9298 16.8267 25.4895C16.8267 26.3237 16.1581 27 15.3333 27H7.49333C6.66859 27 6 26.3237 6 25.4895C6 24.6553 6.66859 23.979 7.49333 23.979H10.5697C10.7321 23.979 10.8203 23.7847 10.718 23.6571C9.05176 21.5799 8.05333 18.9323 8.05333 16.049C8.05333 13.1953 9.03128 10.5727 10.6667 8.50523L10.6667 2.91118C10.1194 2.68711 9.73333 2.1444 9.73333 1.51049C9.73333 0.676269 10.4019 0 11.2267 0C12.0514 0 12.72 0.676269 12.72 1.51049ZM18.5067 14.5385C18.5067 13.7043 17.8381 13.028 17.0133 13.028C16.1886 13.028 15.52 13.7043 15.52 14.5385V17.5595H18.5067V14.5385ZM22.9867 13.028C23.8114 13.028 24.48 13.7043 24.48 14.5385V17.5595H21.4933V14.5385C21.4933 13.7043 22.1619 13.028 22.9867 13.028Z" fill="#6C7193"/>
</svg>
