<svg width="540" height="116" viewBox="0 0 540 116" fill="none" xmlns="http://www.w3.org/2000/svg">
<rect x="180" y="20" width="180" height="96" rx="6" fill="#E0F4FF"/>
<rect x="180" y="20" width="180" height="96" rx="6" fill="url(#paint0_linear_175_3344)"/>
<rect x="180" y="20" width="180" height="96" rx="6" fill="url(#paint1_radial_175_3344)"/>
<path d="M213.04 40V33.52H211.42V32.7H214V40H213.04ZM217.869 40.16C217.169 40.16 216.625 40.01 216.239 39.71C215.859 39.41 215.662 39 215.649 38.48H216.549C216.562 38.6867 216.665 38.8833 216.859 39.07C217.059 39.25 217.395 39.34 217.869 39.34C218.295 39.34 218.622 39.2567 218.849 39.09C219.075 38.9167 219.189 38.7067 219.189 38.46C219.189 38.24 219.105 38.07 218.939 37.95C218.772 37.8233 218.502 37.74 218.129 37.7L217.549 37.64C217.042 37.5867 216.629 37.4367 216.309 37.19C215.989 36.9367 215.829 36.5833 215.829 36.13C215.829 35.6167 216.019 35.2167 216.399 34.93C216.779 34.6433 217.269 34.5 217.869 34.5C218.469 34.5 218.955 34.6333 219.329 34.9C219.702 35.1667 219.895 35.5633 219.909 36.09H219.009C219.002 35.8767 218.902 35.6967 218.709 35.55C218.522 35.3967 218.242 35.32 217.869 35.32C217.495 35.32 217.212 35.3967 217.019 35.55C216.825 35.7033 216.729 35.8967 216.729 36.13C216.729 36.33 216.795 36.49 216.929 36.61C217.069 36.73 217.295 36.8067 217.609 36.84L218.189 36.9C218.762 36.96 219.222 37.12 219.569 37.38C219.915 37.6333 220.089 37.9933 220.089 38.46C220.089 38.7933 219.992 39.09 219.799 39.35C219.612 39.6033 219.352 39.8033 219.019 39.95C218.685 40.09 218.302 40.16 217.869 40.16ZM223.56 40.06C223.16 40.06 222.813 40.0033 222.52 39.89C222.233 39.7767 222.01 39.5833 221.85 39.31C221.697 39.03 221.62 38.6533 221.62 38.18V35.38H220.7V34.66H221.62V33.04H222.54V34.66H224.38V35.38H222.54V38.3C222.54 38.5867 222.617 38.81 222.77 38.97C222.93 39.1233 223.153 39.2 223.44 39.2H224.38V40.06H223.56ZM228.013 42V34.66H228.773V35.97C228.953 35.4567 229.233 35.08 229.613 34.84C229.993 34.6 230.42 34.48 230.893 34.48C231.413 34.48 231.863 34.6067 232.243 34.86C232.63 35.1133 232.93 35.45 233.143 35.87C233.357 36.2833 233.463 36.74 233.463 37.24V37.42C233.463 37.92 233.353 38.38 233.133 38.8C232.913 39.2133 232.607 39.5467 232.213 39.8C231.827 40.0533 231.38 40.18 230.873 40.18C230.507 40.18 230.153 40.1033 229.813 39.95C229.473 39.7967 229.193 39.5467 228.973 39.2V42H228.013ZM230.723 39.34C231.083 39.34 231.397 39.2567 231.663 39.09C231.93 38.9167 232.137 38.68 232.283 38.38C232.43 38.0733 232.503 37.7233 232.503 37.33C232.503 36.93 232.43 36.58 232.283 36.28C232.137 35.98 231.93 35.7467 231.663 35.58C231.397 35.4067 231.083 35.32 230.723 35.32C230.403 35.32 230.107 35.3933 229.833 35.54C229.56 35.68 229.34 35.8867 229.173 36.16C229.013 36.4267 228.933 36.75 228.933 37.13V37.59C228.933 37.9567 229.017 38.27 229.183 38.53C229.35 38.79 229.57 38.99 229.843 39.13C230.117 39.27 230.41 39.34 230.723 39.34ZM234.968 40V33.46H234.228V32.7H235.928V40H234.968ZM239.249 40.14C238.642 40.14 238.166 39.99 237.819 39.69C237.479 39.3833 237.309 38.9533 237.309 38.4C237.309 37.8333 237.499 37.4067 237.879 37.12C238.259 36.8267 238.796 36.68 239.489 36.68H240.839V36.55C240.839 35.81 240.466 35.44 239.719 35.44C239.412 35.44 239.092 35.4467 238.759 35.46C238.426 35.4733 238.149 35.4867 237.929 35.5V34.66C238.142 34.64 238.379 34.6267 238.639 34.62C238.906 34.6067 239.159 34.6 239.399 34.6C240.219 34.6 240.816 34.75 241.189 35.05C241.569 35.35 241.759 35.8733 241.759 36.62V40H240.999V38.94C240.759 39.74 240.176 40.14 239.249 40.14ZM239.449 39.38C239.676 39.38 239.892 39.34 240.099 39.26C240.306 39.1733 240.476 39.0333 240.609 38.84C240.749 38.64 240.826 38.3667 240.839 38.02V37.4H239.449C239.062 37.4 238.766 37.4933 238.559 37.68C238.352 37.8667 238.249 38.1067 238.249 38.4C238.249 38.6933 238.352 38.93 238.559 39.11C238.766 39.29 239.062 39.38 239.449 39.38ZM245.811 40.18C245.351 40.18 244.951 40.1 244.611 39.94C244.278 39.78 244.001 39.5667 243.781 39.3C243.561 39.0267 243.394 38.7267 243.281 38.4C243.174 38.0733 243.121 37.7467 243.121 37.42V37.24C243.121 36.9 243.174 36.5667 243.281 36.24C243.394 35.9133 243.561 35.62 243.781 35.36C244.008 35.0933 244.288 34.88 244.621 34.72C244.954 34.56 245.344 34.48 245.791 34.48C246.238 34.48 246.638 34.5633 246.991 34.73C247.351 34.8967 247.638 35.1333 247.851 35.44C248.071 35.74 248.194 36.0967 248.221 36.51H247.301C247.254 36.1767 247.101 35.9 246.841 35.68C246.581 35.4533 246.231 35.34 245.791 35.34C245.411 35.34 245.094 35.4267 244.841 35.6C244.588 35.7733 244.398 36.01 244.271 36.31C244.144 36.61 244.081 36.95 244.081 37.33C244.081 37.6967 244.144 38.0333 244.271 38.34C244.398 38.64 244.588 38.88 244.841 39.06C245.101 39.2333 245.424 39.32 245.811 39.32C246.258 39.32 246.618 39.2067 246.891 38.98C247.164 38.7467 247.321 38.46 247.361 38.12H248.281C248.261 38.54 248.138 38.9033 247.911 39.21C247.691 39.5167 247.398 39.7567 247.031 39.93C246.671 40.0967 246.264 40.18 245.811 40.18ZM251.856 40.18C251.389 40.18 250.986 40.1 250.646 39.94C250.306 39.78 250.029 39.57 249.816 39.31C249.602 39.0433 249.442 38.7467 249.336 38.42C249.236 38.0933 249.186 37.76 249.186 37.42V37.24C249.186 36.8933 249.236 36.5567 249.336 36.23C249.442 35.9033 249.602 35.61 249.816 35.35C250.029 35.0833 250.299 34.8733 250.626 34.72C250.959 34.56 251.349 34.48 251.796 34.48C252.376 34.48 252.852 34.6067 253.226 34.86C253.606 35.1067 253.886 35.4267 254.066 35.82C254.252 36.2133 254.346 36.6333 254.346 37.08V37.51H250.106C250.139 38.0367 250.296 38.4733 250.576 38.82C250.856 39.1667 251.282 39.34 251.856 39.34C252.276 39.34 252.616 39.2467 252.876 39.06C253.142 38.8733 253.302 38.6567 253.356 38.41H254.256C254.142 38.9633 253.872 39.3967 253.446 39.71C253.019 40.0233 252.489 40.18 251.856 40.18ZM251.796 35.32C251.316 35.32 250.939 35.4567 250.666 35.73C250.392 35.9967 250.219 36.35 250.146 36.79H253.406C253.346 36.3367 253.182 35.98 252.916 35.72C252.649 35.4533 252.276 35.32 251.796 35.32ZM255.519 40V38.78H256.679V40H255.519ZM255.519 36.3V35.08H256.679V36.3H255.519ZM263.188 41.548V39.988C262.3 39.884 261.628 39.592 261.172 39.112C260.716 38.624 260.488 37.996 260.488 37.228H262.024C262.024 37.476 262.084 37.712 262.204 37.936C262.332 38.16 262.536 38.344 262.816 38.488C263.096 38.624 263.464 38.692 263.92 38.692C264.52 38.692 264.976 38.58 265.288 38.356C265.6 38.124 265.756 37.832 265.756 37.48C265.756 37.168 265.62 36.908 265.348 36.7C265.076 36.492 264.664 36.364 264.112 36.316L263.44 36.256C262.608 36.184 261.948 35.936 261.46 35.512C260.972 35.088 260.728 34.488 260.728 33.712C260.728 33.008 260.94 32.452 261.364 32.044C261.796 31.628 262.388 31.372 263.14 31.276V30.076H264.532V31.288C265.284 31.4 265.864 31.688 266.272 32.152C266.688 32.616 266.896 33.22 266.896 33.964H265.36C265.36 33.604 265.232 33.284 264.976 33.004C264.72 32.724 264.328 32.584 263.8 32.584C263.32 32.584 262.948 32.692 262.684 32.908C262.42 33.116 262.288 33.384 262.288 33.712C262.288 33.992 262.388 34.24 262.588 34.456C262.796 34.672 263.128 34.8 263.584 34.84L264.256 34.9C265.176 34.988 265.912 35.248 266.464 35.68C267.024 36.112 267.304 36.712 267.304 37.48C267.304 38.2 267.064 38.78 266.584 39.22C266.112 39.652 265.444 39.912 264.58 40V41.548H263.188ZM271.484 40.228C270.812 40.228 270.232 40.1 269.744 39.844C269.264 39.588 268.896 39.248 268.64 38.824C268.384 38.392 268.256 37.912 268.256 37.384H269.9C269.9 37.816 270.04 38.16 270.32 38.416C270.608 38.672 270.996 38.8 271.484 38.8C271.98 38.8 272.368 38.668 272.648 38.404C272.928 38.132 273.068 37.776 273.068 37.336C273.068 36.904 272.928 36.552 272.648 36.28C272.368 36 271.984 35.86 271.496 35.86C271.256 35.86 271.044 35.896 270.86 35.968C270.676 36.032 270.52 36.112 270.392 36.208L269.612 34.864L272.492 32.896L272.384 32.692H268.616V31.24H274.34V32.992L271.844 34.648C272.444 34.688 272.956 34.828 273.38 35.068C273.812 35.3 274.14 35.608 274.364 35.992C274.596 36.376 274.712 36.812 274.712 37.3V37.456C274.712 37.96 274.584 38.424 274.328 38.848C274.072 39.264 273.704 39.6 273.224 39.856C272.744 40.104 272.164 40.228 271.484 40.228ZM278.996 40.228C278.324 40.228 277.744 40.1 277.256 39.844C276.776 39.588 276.408 39.248 276.152 38.824C275.896 38.392 275.768 37.912 275.768 37.384H277.412C277.412 37.816 277.552 38.16 277.832 38.416C278.12 38.672 278.508 38.8 278.996 38.8C279.492 38.8 279.88 38.668 280.16 38.404C280.44 38.132 280.58 37.776 280.58 37.336C280.58 36.904 280.44 36.552 280.16 36.28C279.88 36 279.496 35.86 279.008 35.86C278.768 35.86 278.556 35.896 278.372 35.968C278.188 36.032 278.032 36.112 277.904 36.208L277.124 34.864L280.004 32.896L279.896 32.692H276.128V31.24H281.852V32.992L279.356 34.648C279.956 34.688 280.468 34.828 280.892 35.068C281.324 35.3 281.652 35.608 281.876 35.992C282.108 36.376 282.224 36.812 282.224 37.3V37.456C282.224 37.96 282.096 38.424 281.84 38.848C281.584 39.264 281.216 39.6 280.736 39.856C280.256 40.104 279.676 40.228 278.996 40.228ZM284.287 41.992L282.991 41.5L284.215 38.02L285.607 38.536L284.287 41.992ZM290.606 40.228C289.918 40.228 289.33 40.116 288.842 39.892C288.362 39.66 287.97 39.348 287.666 38.956C287.37 38.556 287.15 38.1 287.006 37.588C286.87 37.076 286.802 36.532 286.802 35.956V35.284C286.802 34.484 286.934 33.76 287.198 33.112C287.47 32.464 287.886 31.948 288.446 31.564C289.014 31.18 289.734 30.988 290.606 30.988C291.47 30.988 292.182 31.18 292.742 31.564C293.302 31.948 293.714 32.464 293.978 33.112C294.25 33.76 294.386 34.484 294.386 35.284V35.956C294.386 36.532 294.314 37.076 294.17 37.588C294.034 38.1 293.814 38.556 293.51 38.956C293.214 39.348 292.826 39.66 292.346 39.892C291.866 40.116 291.286 40.228 290.606 40.228ZM290.606 38.668C291.31 38.668 291.83 38.424 292.166 37.936C292.51 37.44 292.682 36.672 292.682 35.632C292.682 34.536 292.51 33.748 292.166 33.268C291.822 32.788 291.302 32.548 290.606 32.548C289.902 32.548 289.374 32.788 289.022 33.268C288.678 33.74 288.506 34.52 288.506 35.608C288.506 36.664 288.674 37.44 289.01 37.936C289.354 38.424 289.886 38.668 290.606 38.668ZM299.676 40.228C298.988 40.228 298.4 40.116 297.912 39.892C297.432 39.66 297.04 39.348 296.736 38.956C296.44 38.556 296.22 38.1 296.076 37.588C295.94 37.076 295.872 36.532 295.872 35.956V35.284C295.872 34.484 296.004 33.76 296.268 33.112C296.54 32.464 296.956 31.948 297.516 31.564C298.084 31.18 298.804 30.988 299.676 30.988C300.54 30.988 301.252 31.18 301.812 31.564C302.372 31.948 302.784 32.464 303.048 33.112C303.32 33.76 303.456 34.484 303.456 35.284V35.956C303.456 36.532 303.384 37.076 303.24 37.588C303.104 38.1 302.884 38.556 302.58 38.956C302.284 39.348 301.896 39.66 301.416 39.892C300.936 40.116 300.356 40.228 299.676 40.228ZM299.676 38.668C300.38 38.668 300.9 38.424 301.236 37.936C301.58 37.44 301.752 36.672 301.752 35.632C301.752 34.536 301.58 33.748 301.236 33.268C300.892 32.788 300.372 32.548 299.676 32.548C298.972 32.548 298.444 32.788 298.092 33.268C297.748 33.74 297.576 34.52 297.576 35.608C297.576 36.664 297.744 37.44 298.08 37.936C298.424 38.424 298.956 38.668 299.676 38.668ZM308.747 40.228C308.059 40.228 307.471 40.116 306.983 39.892C306.503 39.66 306.111 39.348 305.807 38.956C305.511 38.556 305.291 38.1 305.147 37.588C305.011 37.076 304.943 36.532 304.943 35.956V35.284C304.943 34.484 305.075 33.76 305.339 33.112C305.611 32.464 306.027 31.948 306.587 31.564C307.155 31.18 307.875 30.988 308.747 30.988C309.611 30.988 310.323 31.18 310.883 31.564C311.443 31.948 311.855 32.464 312.119 33.112C312.391 33.76 312.527 34.484 312.527 35.284V35.956C312.527 36.532 312.455 37.076 312.311 37.588C312.175 38.1 311.955 38.556 311.651 38.956C311.355 39.348 310.967 39.66 310.487 39.892C310.007 40.116 309.427 40.228 308.747 40.228ZM308.747 38.668C309.451 38.668 309.971 38.424 310.307 37.936C310.651 37.44 310.823 36.672 310.823 35.632C310.823 34.536 310.651 33.748 310.307 33.268C309.963 32.788 309.443 32.548 308.747 32.548C308.043 32.548 307.515 32.788 307.163 33.268C306.819 33.74 306.647 34.52 306.647 35.608C306.647 36.664 306.815 37.44 307.151 37.936C307.495 38.424 308.027 38.668 308.747 38.668Z" fill="#6C7193"/>
<path d="M270 0L269.907 0.839144C269.494 4.55792 266.558 7.49356 262.839 7.90676L262 8L262.839 8.09324C266.558 8.50644 269.494 11.4421 269.907 15.1609L270 16L270.093 15.1609C270.506 11.4421 273.442 8.50644 277.161 8.09324L278 8L277.161 7.90676C273.442 7.49356 270.506 4.55792 270.093 0.839144L270 0Z" fill="#92A2F6"/>
<rect x="360" y="84" width="180" height="32" rx="6" fill="#E0F4FF"/>
<rect x="360" y="84" width="180" height="32" rx="6" fill="url(#paint2_linear_175_3344)"/>
<rect x="360" y="84" width="180" height="32" rx="6" fill="url(#paint3_radial_175_3344)"/>
<path d="M393.99 104.18C393.443 104.18 392.98 104.073 392.6 103.86C392.22 103.647 391.93 103.363 391.73 103.01C391.537 102.657 391.44 102.273 391.44 101.86H392.38C392.38 102.313 392.523 102.673 392.81 102.94C393.103 103.207 393.497 103.34 393.99 103.34C394.483 103.34 394.873 103.207 395.16 102.94C395.453 102.673 395.6 102.313 395.6 101.86C395.6 101.407 395.453 101.04 395.16 100.76C394.873 100.48 394.487 100.34 394 100.34C393.793 100.34 393.613 100.367 393.46 100.42C393.313 100.467 393.183 100.527 393.07 100.6L392.59 99.74L395.38 97.7L395.28 97.52H391.73V96.7H396.18V98.03L394.02 99.6H394.03C394.563 99.6 395.017 99.7 395.39 99.9C395.763 100.1 396.047 100.367 396.24 100.7C396.44 101.033 396.54 101.397 396.54 101.79V101.93C396.54 102.317 396.44 102.683 396.24 103.03C396.047 103.37 395.76 103.647 395.38 103.86C395.007 104.073 394.543 104.18 393.99 104.18ZM398.063 104V98.66H398.823V100.26C398.903 99.6867 399.113 99.2667 399.453 99C399.793 98.7333 400.256 98.6 400.843 98.6H401.023V99.46H400.683C400.149 99.46 399.739 99.6033 399.453 99.89C399.166 100.17 399.023 100.577 399.023 101.11V104H398.063ZM404.336 104.18C403.829 104.18 403.376 104.057 402.976 103.81C402.582 103.563 402.272 103.233 402.046 102.82C401.819 102.4 401.706 101.933 401.706 101.42V101.24C401.706 100.733 401.816 100.273 402.036 99.86C402.256 99.44 402.559 99.1067 402.946 98.86C403.339 98.6067 403.792 98.48 404.306 98.48C404.699 98.48 405.059 98.56 405.386 98.72C405.719 98.88 405.989 99.13 406.196 99.47V96.7H407.156V104H406.396V102.9C406.189 103.353 405.899 103.68 405.526 103.88C405.159 104.08 404.762 104.18 404.336 104.18ZM404.466 103.34C404.792 103.34 405.089 103.267 405.356 103.12C405.622 102.973 405.836 102.763 405.996 102.49C406.156 102.21 406.236 101.883 406.236 101.51V101.05C406.236 100.683 406.152 100.373 405.986 100.12C405.826 99.86 405.609 99.6633 405.336 99.53C405.069 99.39 404.776 99.32 404.456 99.32C403.922 99.32 403.489 99.5033 403.156 99.87C402.829 100.237 402.666 100.723 402.666 101.33C402.666 101.737 402.742 102.093 402.896 102.4C403.049 102.7 403.262 102.933 403.536 103.1C403.809 103.26 404.119 103.34 404.466 103.34ZM411.275 106V98.66H412.035V99.97C412.215 99.4567 412.495 99.08 412.875 98.84C413.255 98.6 413.682 98.48 414.155 98.48C414.675 98.48 415.125 98.6067 415.505 98.86C415.892 99.1133 416.192 99.45 416.405 99.87C416.619 100.283 416.725 100.74 416.725 101.24V101.42C416.725 101.92 416.615 102.38 416.395 102.8C416.175 103.213 415.869 103.547 415.475 103.8C415.089 104.053 414.642 104.18 414.135 104.18C413.769 104.18 413.415 104.103 413.075 103.95C412.735 103.797 412.455 103.547 412.235 103.2V106H411.275ZM413.985 103.34C414.345 103.34 414.659 103.257 414.925 103.09C415.192 102.917 415.399 102.68 415.545 102.38C415.692 102.073 415.765 101.723 415.765 101.33C415.765 100.93 415.692 100.58 415.545 100.28C415.399 99.98 415.192 99.7467 414.925 99.58C414.659 99.4067 414.345 99.32 413.985 99.32C413.665 99.32 413.369 99.3933 413.095 99.54C412.822 99.68 412.602 99.8867 412.435 100.16C412.275 100.427 412.195 100.75 412.195 101.13V101.59C412.195 101.957 412.279 102.27 412.445 102.53C412.612 102.79 412.832 102.99 413.105 103.13C413.379 103.27 413.672 103.34 413.985 103.34ZM418.23 104V97.46H417.49V96.7H419.19V104H418.23ZM422.511 104.14C421.905 104.14 421.428 103.99 421.081 103.69C420.741 103.383 420.571 102.953 420.571 102.4C420.571 101.833 420.761 101.407 421.141 101.12C421.521 100.827 422.058 100.68 422.751 100.68H424.101V100.55C424.101 99.81 423.728 99.44 422.981 99.44C422.675 99.44 422.355 99.4467 422.021 99.46C421.688 99.4733 421.411 99.4867 421.191 99.5V98.66C421.405 98.64 421.641 98.6267 421.901 98.62C422.168 98.6067 422.421 98.6 422.661 98.6C423.481 98.6 424.078 98.75 424.451 99.05C424.831 99.35 425.021 99.8733 425.021 100.62V104H424.261V102.94C424.021 103.74 423.438 104.14 422.511 104.14ZM422.711 103.38C422.938 103.38 423.155 103.34 423.361 103.26C423.568 103.173 423.738 103.033 423.871 102.84C424.011 102.64 424.088 102.367 424.101 102.02V101.4H422.711C422.325 101.4 422.028 101.493 421.821 101.68C421.615 101.867 421.511 102.107 421.511 102.4C421.511 102.693 421.615 102.93 421.821 103.11C422.028 103.29 422.325 103.38 422.711 103.38ZM429.073 104.18C428.613 104.18 428.213 104.1 427.873 103.94C427.54 103.78 427.263 103.567 427.043 103.3C426.823 103.027 426.657 102.727 426.543 102.4C426.437 102.073 426.383 101.747 426.383 101.42V101.24C426.383 100.9 426.437 100.567 426.543 100.24C426.657 99.9133 426.823 99.62 427.043 99.36C427.27 99.0933 427.55 98.88 427.883 98.72C428.217 98.56 428.607 98.48 429.053 98.48C429.5 98.48 429.9 98.5633 430.253 98.73C430.613 98.8967 430.9 99.1333 431.113 99.44C431.333 99.74 431.457 100.097 431.483 100.51H430.563C430.517 100.177 430.363 99.9 430.103 99.68C429.843 99.4533 429.493 99.34 429.053 99.34C428.673 99.34 428.357 99.4267 428.103 99.6C427.85 99.7733 427.66 100.01 427.533 100.31C427.407 100.61 427.343 100.95 427.343 101.33C427.343 101.697 427.407 102.033 427.533 102.34C427.66 102.64 427.85 102.88 428.103 103.06C428.363 103.233 428.687 103.32 429.073 103.32C429.52 103.32 429.88 103.207 430.153 102.98C430.427 102.747 430.583 102.46 430.623 102.12H431.543C431.523 102.54 431.4 102.903 431.173 103.21C430.953 103.517 430.66 103.757 430.293 103.93C429.933 104.097 429.527 104.18 429.073 104.18ZM435.118 104.18C434.651 104.18 434.248 104.1 433.908 103.94C433.568 103.78 433.291 103.57 433.078 103.31C432.864 103.043 432.704 102.747 432.598 102.42C432.498 102.093 432.448 101.76 432.448 101.42V101.24C432.448 100.893 432.498 100.557 432.598 100.23C432.704 99.9033 432.864 99.61 433.078 99.35C433.291 99.0833 433.561 98.8733 433.888 98.72C434.221 98.56 434.611 98.48 435.058 98.48C435.638 98.48 436.114 98.6067 436.488 98.86C436.868 99.1067 437.148 99.4267 437.328 99.82C437.514 100.213 437.608 100.633 437.608 101.08V101.51H433.368C433.401 102.037 433.558 102.473 433.838 102.82C434.118 103.167 434.544 103.34 435.118 103.34C435.538 103.34 435.878 103.247 436.138 103.06C436.404 102.873 436.564 102.657 436.618 102.41H437.518C437.404 102.963 437.134 103.397 436.708 103.71C436.281 104.023 435.751 104.18 435.118 104.18ZM435.058 99.32C434.578 99.32 434.201 99.4567 433.928 99.73C433.654 99.9967 433.481 100.35 433.408 100.79H436.668C436.608 100.337 436.444 99.98 436.178 99.72C435.911 99.4533 435.538 99.32 435.058 99.32ZM438.781 104V102.78H439.941V104H438.781ZM438.781 100.3V99.08H439.941V100.3H438.781ZM446.45 105.548V103.988C445.562 103.884 444.89 103.592 444.434 103.112C443.978 102.624 443.75 101.996 443.75 101.228H445.286C445.286 101.476 445.346 101.712 445.466 101.936C445.594 102.16 445.798 102.344 446.078 102.488C446.358 102.624 446.726 102.692 447.182 102.692C447.782 102.692 448.238 102.58 448.55 102.356C448.862 102.124 449.018 101.832 449.018 101.48C449.018 101.168 448.882 100.908 448.61 100.7C448.338 100.492 447.926 100.364 447.374 100.316L446.702 100.256C445.87 100.184 445.21 99.936 444.722 99.512C444.234 99.088 443.99 98.488 443.99 97.712C443.99 97.008 444.202 96.452 444.626 96.044C445.058 95.628 445.65 95.372 446.402 95.276V94.076H447.794V95.288C448.546 95.4 449.126 95.688 449.534 96.152C449.95 96.616 450.158 97.22 450.158 97.964H448.622C448.622 97.604 448.494 97.284 448.238 97.004C447.982 96.724 447.59 96.584 447.062 96.584C446.582 96.584 446.21 96.692 445.946 96.908C445.682 97.116 445.55 97.384 445.55 97.712C445.55 97.992 445.65 98.24 445.85 98.456C446.058 98.672 446.39 98.8 446.846 98.84L447.518 98.9C448.438 98.988 449.174 99.248 449.726 99.68C450.286 100.112 450.566 100.712 450.566 101.48C450.566 102.2 450.326 102.78 449.846 103.22C449.374 103.652 448.706 103.912 447.842 104V105.548H446.45ZM453.294 104V96.704H451.506V95.24H454.986V104H453.294ZM458.392 104V96.704H456.604V95.24H460.084V104H458.392ZM462.722 105.992L461.426 105.5L462.65 102.02L464.042 102.536L462.722 105.992ZM469.04 104.228C468.352 104.228 467.764 104.116 467.276 103.892C466.796 103.66 466.404 103.348 466.1 102.956C465.804 102.556 465.584 102.1 465.44 101.588C465.304 101.076 465.236 100.532 465.236 99.956V99.284C465.236 98.484 465.368 97.76 465.632 97.112C465.904 96.464 466.32 95.948 466.88 95.564C467.448 95.18 468.168 94.988 469.04 94.988C469.904 94.988 470.616 95.18 471.176 95.564C471.736 95.948 472.148 96.464 472.412 97.112C472.684 97.76 472.82 98.484 472.82 99.284V99.956C472.82 100.532 472.748 101.076 472.604 101.588C472.468 102.1 472.248 102.556 471.944 102.956C471.648 103.348 471.26 103.66 470.78 103.892C470.3 104.116 469.72 104.228 469.04 104.228ZM469.04 102.668C469.744 102.668 470.264 102.424 470.6 101.936C470.944 101.44 471.116 100.672 471.116 99.632C471.116 98.536 470.944 97.748 470.6 97.268C470.256 96.788 469.736 96.548 469.04 96.548C468.336 96.548 467.808 96.788 467.456 97.268C467.112 97.74 466.94 98.52 466.94 99.608C466.94 100.664 467.108 101.44 467.444 101.936C467.788 102.424 468.32 102.668 469.04 102.668ZM478.111 104.228C477.423 104.228 476.835 104.116 476.347 103.892C475.867 103.66 475.475 103.348 475.171 102.956C474.875 102.556 474.655 102.1 474.511 101.588C474.375 101.076 474.307 100.532 474.307 99.956V99.284C474.307 98.484 474.439 97.76 474.703 97.112C474.975 96.464 475.391 95.948 475.951 95.564C476.519 95.18 477.239 94.988 478.111 94.988C478.975 94.988 479.687 95.18 480.247 95.564C480.807 95.948 481.219 96.464 481.483 97.112C481.755 97.76 481.891 98.484 481.891 99.284V99.956C481.891 100.532 481.819 101.076 481.675 101.588C481.539 102.1 481.319 102.556 481.015 102.956C480.719 103.348 480.331 103.66 479.851 103.892C479.371 104.116 478.791 104.228 478.111 104.228ZM478.111 102.668C478.815 102.668 479.335 102.424 479.671 101.936C480.015 101.44 480.187 100.672 480.187 99.632C480.187 98.536 480.015 97.748 479.671 97.268C479.327 96.788 478.807 96.548 478.111 96.548C477.407 96.548 476.879 96.788 476.527 97.268C476.183 97.74 476.011 98.52 476.011 99.608C476.011 100.664 476.179 101.44 476.515 101.936C476.859 102.424 477.391 102.668 478.111 102.668ZM487.181 104.228C486.493 104.228 485.905 104.116 485.417 103.892C484.937 103.66 484.545 103.348 484.241 102.956C483.945 102.556 483.725 102.1 483.581 101.588C483.445 101.076 483.377 100.532 483.377 99.956V99.284C483.377 98.484 483.509 97.76 483.773 97.112C484.045 96.464 484.461 95.948 485.021 95.564C485.589 95.18 486.309 94.988 487.181 94.988C488.045 94.988 488.757 95.18 489.317 95.564C489.877 95.948 490.289 96.464 490.553 97.112C490.825 97.76 490.961 98.484 490.961 99.284V99.956C490.961 100.532 490.889 101.076 490.745 101.588C490.609 102.1 490.389 102.556 490.085 102.956C489.789 103.348 489.401 103.66 488.921 103.892C488.441 104.116 487.861 104.228 487.181 104.228ZM487.181 102.668C487.885 102.668 488.405 102.424 488.741 101.936C489.085 101.44 489.257 100.672 489.257 99.632C489.257 98.536 489.085 97.748 488.741 97.268C488.397 96.788 487.877 96.548 487.181 96.548C486.477 96.548 485.949 96.788 485.597 97.268C485.253 97.74 485.081 98.52 485.081 99.608C485.081 100.664 485.249 101.44 485.585 101.936C485.929 102.424 486.461 102.668 487.181 102.668Z" fill="#6C7193"/>
<path d="M450 64L449.907 64.8391C449.494 68.5579 446.558 71.4936 442.839 71.9068L442 72L442.839 72.0932C446.558 72.5064 449.494 75.4421 449.907 79.1609L450 80L450.093 79.1609C450.506 75.4421 453.442 72.5064 457.161 72.0932L458 72L457.161 71.9068C453.442 71.4936 450.506 68.5579 450.093 64.8391L450 64Z" fill="#E9E7FD"/>
<rect y="52" width="180" height="64" rx="6" fill="#E0F4FF"/>
<rect y="52" width="180" height="64" rx="6" fill="url(#paint4_linear_175_3344)"/>
<rect y="52" width="180" height="64" rx="6" fill="url(#paint5_radial_175_3344)"/>
<path d="M30.76 72V70.8C30.76 70.5067 30.8 70.2567 30.88 70.05C30.9667 69.8433 31.1133 69.6567 31.32 69.49C31.5267 69.3167 31.8067 69.15 32.16 68.99L33.53 68.36C33.8633 68.2067 34.1267 68.01 34.32 67.77C34.5133 67.5233 34.61 67.2067 34.61 66.82C34.61 66.3533 34.48 65.99 34.22 65.73C33.96 65.47 33.5933 65.34 33.12 65.34C32.6533 65.34 32.2867 65.47 32.02 65.73C31.7533 65.99 31.62 66.3533 31.62 66.82H30.68C30.68 66.4 30.7667 66.0133 30.94 65.66C31.12 65.3067 31.39 65.0267 31.75 64.82C32.11 64.6067 32.5667 64.5 33.12 64.5C33.6733 64.5 34.1267 64.6067 34.48 64.82C34.84 65.0267 35.1067 65.3 35.28 65.64C35.46 65.98 35.55 66.35 35.55 66.75V66.89C35.55 67.4167 35.3967 67.86 35.09 68.22C34.79 68.58 34.3833 68.8767 33.87 69.11L32.5 69.74C32.1933 69.88 31.9867 70.02 31.88 70.16C31.7733 70.3 31.72 70.4867 31.72 70.72V71.18H35.64V72H30.76ZM37.1016 72V66.66H37.8616V67.9C37.9816 67.4467 38.195 67.1 38.5016 66.86C38.815 66.62 39.2216 66.5 39.7216 66.5H39.7616C40.435 66.5 40.9316 66.71 41.2516 67.13C41.5783 67.55 41.7416 68.1567 41.7416 68.95V72H40.7816V68.75C40.7816 68.3367 40.665 68.0067 40.4316 67.76C40.1983 67.5067 39.8783 67.38 39.4716 67.38C39.0516 67.38 38.7116 67.51 38.4516 67.77C38.1916 68.03 38.0616 68.3767 38.0616 68.81V72H37.1016ZM45.7281 72.18C45.2215 72.18 44.7681 72.0567 44.3681 71.81C43.9748 71.5633 43.6648 71.2333 43.4381 70.82C43.2115 70.4 43.0981 69.9333 43.0981 69.42V69.24C43.0981 68.7333 43.2081 68.2733 43.4281 67.86C43.6481 67.44 43.9515 67.1067 44.3381 66.86C44.7315 66.6067 45.1848 66.48 45.6981 66.48C46.0915 66.48 46.4515 66.56 46.7781 66.72C47.1115 66.88 47.3815 67.13 47.5881 67.47V64.7H48.5481V72H47.7881V70.9C47.5815 71.3533 47.2915 71.68 46.9181 71.88C46.5515 72.08 46.1548 72.18 45.7281 72.18ZM45.8581 71.34C46.1848 71.34 46.4815 71.2667 46.7481 71.12C47.0148 70.9733 47.2281 70.7633 47.3881 70.49C47.5481 70.21 47.6281 69.8833 47.6281 69.51V69.05C47.6281 68.6833 47.5448 68.3733 47.3781 68.12C47.2181 67.86 47.0015 67.6633 46.7281 67.53C46.4615 67.39 46.1681 67.32 45.8481 67.32C45.3148 67.32 44.8815 67.5033 44.5481 67.87C44.2215 68.2367 44.0581 68.7233 44.0581 69.33C44.0581 69.7367 44.1348 70.0933 44.2881 70.4C44.4415 70.7 44.6548 70.9333 44.9281 71.1C45.2015 71.26 45.5115 71.34 45.8581 71.34ZM52.668 74V66.66H53.428V67.97C53.608 67.4567 53.888 67.08 54.268 66.84C54.648 66.6 55.0747 66.48 55.548 66.48C56.068 66.48 56.518 66.6067 56.898 66.86C57.2847 67.1133 57.5847 67.45 57.798 67.87C58.0114 68.2833 58.118 68.74 58.118 69.24V69.42C58.118 69.92 58.008 70.38 57.788 70.8C57.568 71.2133 57.2614 71.5467 56.868 71.8C56.4814 72.0533 56.0347 72.18 55.528 72.18C55.1614 72.18 54.808 72.1033 54.468 71.95C54.128 71.7967 53.848 71.5467 53.628 71.2V74H52.668ZM55.378 71.34C55.738 71.34 56.0514 71.2567 56.318 71.09C56.5847 70.9167 56.7914 70.68 56.938 70.38C57.0847 70.0733 57.158 69.7233 57.158 69.33C57.158 68.93 57.0847 68.58 56.938 68.28C56.7914 67.98 56.5847 67.7467 56.318 67.58C56.0514 67.4067 55.738 67.32 55.378 67.32C55.058 67.32 54.7614 67.3933 54.488 67.54C54.2147 67.68 53.9947 67.8867 53.828 68.16C53.668 68.4267 53.588 68.75 53.588 69.13V69.59C53.588 69.9567 53.6714 70.27 53.838 70.53C54.0047 70.79 54.2247 70.99 54.498 71.13C54.7714 71.27 55.0647 71.34 55.378 71.34ZM59.6226 72V65.46H58.8826V64.7H60.5826V72H59.6226ZM63.9039 72.14C63.2972 72.14 62.8206 71.99 62.4739 71.69C62.1339 71.3833 61.9639 70.9533 61.9639 70.4C61.9639 69.8333 62.1539 69.4067 62.5339 69.12C62.9139 68.8267 63.4506 68.68 64.1439 68.68H65.4939V68.55C65.4939 67.81 65.1206 67.44 64.3739 67.44C64.0672 67.44 63.7472 67.4467 63.4139 67.46C63.0806 67.4733 62.8039 67.4867 62.5839 67.5V66.66C62.7972 66.64 63.0339 66.6267 63.2939 66.62C63.5606 66.6067 63.8139 66.6 64.0539 66.6C64.8739 66.6 65.4706 66.75 65.8439 67.05C66.2239 67.35 66.4139 67.8733 66.4139 68.62V72H65.6539V70.94C65.4139 71.74 64.8306 72.14 63.9039 72.14ZM64.1039 71.38C64.3306 71.38 64.5472 71.34 64.7539 71.26C64.9606 71.1733 65.1306 71.0333 65.2639 70.84C65.4039 70.64 65.4806 70.3667 65.4939 70.02V69.4H64.1039C63.7172 69.4 63.4206 69.4933 63.2139 69.68C63.0072 69.8667 62.9039 70.1067 62.9039 70.4C62.9039 70.6933 63.0072 70.93 63.2139 71.11C63.4206 71.29 63.7172 71.38 64.1039 71.38ZM70.4659 72.18C70.0059 72.18 69.6059 72.1 69.2659 71.94C68.9325 71.78 68.6559 71.5667 68.4359 71.3C68.2159 71.0267 68.0492 70.7267 67.9359 70.4C67.8292 70.0733 67.7759 69.7467 67.7759 69.42V69.24C67.7759 68.9 67.8292 68.5667 67.9359 68.24C68.0492 67.9133 68.2159 67.62 68.4359 67.36C68.6625 67.0933 68.9425 66.88 69.2759 66.72C69.6092 66.56 69.9992 66.48 70.4459 66.48C70.8925 66.48 71.2925 66.5633 71.6459 66.73C72.0059 66.8967 72.2925 67.1333 72.5059 67.44C72.7259 67.74 72.8492 68.0967 72.8759 68.51H71.9559C71.9092 68.1767 71.7559 67.9 71.4959 67.68C71.2359 67.4533 70.8859 67.34 70.4459 67.34C70.0659 67.34 69.7492 67.4267 69.4959 67.6C69.2425 67.7733 69.0525 68.01 68.9259 68.31C68.7992 68.61 68.7359 68.95 68.7359 69.33C68.7359 69.6967 68.7992 70.0333 68.9259 70.34C69.0525 70.64 69.2425 70.88 69.4959 71.06C69.7559 71.2333 70.0792 71.32 70.4659 71.32C70.9125 71.32 71.2725 71.2067 71.5459 70.98C71.8192 70.7467 71.9759 70.46 72.0159 70.12H72.9359C72.9159 70.54 72.7925 70.9033 72.5659 71.21C72.3459 71.5167 72.0525 71.7567 71.6859 71.93C71.3259 72.0967 70.9192 72.18 70.4659 72.18ZM76.5103 72.18C76.0436 72.18 75.6403 72.1 75.3003 71.94C74.9603 71.78 74.6836 71.57 74.4703 71.31C74.257 71.0433 74.097 70.7467 73.9903 70.42C73.8903 70.0933 73.8403 69.76 73.8403 69.42V69.24C73.8403 68.8933 73.8903 68.5567 73.9903 68.23C74.097 67.9033 74.257 67.61 74.4703 67.35C74.6836 67.0833 74.9536 66.8733 75.2803 66.72C75.6136 66.56 76.0036 66.48 76.4503 66.48C77.0303 66.48 77.507 66.6067 77.8803 66.86C78.2603 67.1067 78.5403 67.4267 78.7203 67.82C78.907 68.2133 79.0003 68.6333 79.0003 69.08V69.51H74.7603C74.7936 70.0367 74.9503 70.4733 75.2303 70.82C75.5103 71.1667 75.937 71.34 76.5103 71.34C76.9303 71.34 77.2703 71.2467 77.5303 71.06C77.797 70.8733 77.957 70.6567 78.0103 70.41H78.9103C78.797 70.9633 78.527 71.3967 78.1003 71.71C77.6736 72.0233 77.1436 72.18 76.5103 72.18ZM76.4503 67.32C75.9703 67.32 75.5936 67.4567 75.3203 67.73C75.047 67.9967 74.8736 68.35 74.8003 68.79H78.0603C78.0003 68.3367 77.837 67.98 77.5703 67.72C77.3036 67.4533 76.9303 67.32 76.4503 67.32ZM80.1734 72V70.78H81.3334V72H80.1734ZM80.1734 68.3V67.08H81.3334V68.3H80.1734ZM87.8424 73.548V71.988C86.9544 71.884 86.2824 71.592 85.8264 71.112C85.3704 70.624 85.1424 69.996 85.1424 69.228H86.6784C86.6784 69.476 86.7384 69.712 86.8584 69.936C86.9864 70.16 87.1904 70.344 87.4704 70.488C87.7504 70.624 88.1184 70.692 88.5744 70.692C89.1744 70.692 89.6304 70.58 89.9424 70.356C90.2544 70.124 90.4104 69.832 90.4104 69.48C90.4104 69.168 90.2744 68.908 90.0024 68.7C89.7304 68.492 89.3184 68.364 88.7664 68.316L88.0944 68.256C87.2624 68.184 86.6024 67.936 86.1144 67.512C85.6264 67.088 85.3824 66.488 85.3824 65.712C85.3824 65.008 85.5944 64.452 86.0184 64.044C86.4504 63.628 87.0424 63.372 87.7944 63.276V62.076H89.1864V63.288C89.9384 63.4 90.5184 63.688 90.9264 64.152C91.3424 64.616 91.5504 65.22 91.5504 65.964H90.0144C90.0144 65.604 89.8864 65.284 89.6304 65.004C89.3744 64.724 88.9824 64.584 88.4544 64.584C87.9744 64.584 87.6024 64.692 87.3384 64.908C87.0744 65.116 86.9424 65.384 86.9424 65.712C86.9424 65.992 87.0424 66.24 87.2424 66.456C87.4504 66.672 87.7824 66.8 88.2384 66.84L88.9104 66.9C89.8304 66.988 90.5664 67.248 91.1184 67.68C91.6784 68.112 91.9584 68.712 91.9584 69.48C91.9584 70.2 91.7184 70.78 91.2384 71.22C90.7664 71.652 90.0984 71.912 89.2344 72V73.548H87.8424ZM93.2468 72V70.32C93.2468 69.768 93.3828 69.32 93.6548 68.976C93.9268 68.632 94.3948 68.316 95.0588 68.028L96.5468 67.368C96.9148 67.208 97.1948 67.004 97.3868 66.756C97.5868 66.508 97.6868 66.192 97.6868 65.808C97.6868 65.384 97.5588 65.048 97.3028 64.8C97.0548 64.544 96.6988 64.416 96.2348 64.416C95.7708 64.416 95.4108 64.548 95.1548 64.812C94.9068 65.068 94.7828 65.42 94.7828 65.868H93.1388C93.1388 65.332 93.2508 64.848 93.4748 64.416C93.7068 63.976 94.0508 63.628 94.5068 63.372C94.9708 63.116 95.5468 62.988 96.2348 62.988C96.9148 62.988 97.4828 63.112 97.9388 63.36C98.4028 63.608 98.7508 63.94 98.9828 64.356C99.2148 64.772 99.3308 65.228 99.3308 65.724V65.88C99.3308 66.544 99.1468 67.096 98.7788 67.536C98.4108 67.968 97.8708 68.34 97.1588 68.652L95.6708 69.312C95.3828 69.432 95.1828 69.56 95.0708 69.696C94.9668 69.832 94.9148 70.008 94.9148 70.224V70.548H99.3668V72H93.2468ZM100.77 72V70.32C100.77 69.768 100.906 69.32 101.178 68.976C101.45 68.632 101.918 68.316 102.582 68.028L104.07 67.368C104.438 67.208 104.718 67.004 104.91 66.756C105.11 66.508 105.21 66.192 105.21 65.808C105.21 65.384 105.082 65.048 104.826 64.8C104.578 64.544 104.222 64.416 103.758 64.416C103.294 64.416 102.934 64.548 102.678 64.812C102.43 65.068 102.306 65.42 102.306 65.868H100.662C100.662 65.332 100.774 64.848 100.998 64.416C101.23 63.976 101.574 63.628 102.03 63.372C102.494 63.116 103.07 62.988 103.758 62.988C104.438 62.988 105.006 63.112 105.462 63.36C105.926 63.608 106.274 63.94 106.506 64.356C106.738 64.772 106.854 65.228 106.854 65.724V65.88C106.854 66.544 106.67 67.096 106.302 67.536C105.934 67.968 105.394 68.34 104.682 68.652L103.194 69.312C102.906 69.432 102.706 69.56 102.594 69.696C102.49 69.832 102.438 70.008 102.438 70.224V70.548H106.89V72H100.77ZM108.966 73.992L107.67 73.5L108.894 70.02L110.286 70.536L108.966 73.992ZM115.284 72.228C114.596 72.228 114.008 72.116 113.52 71.892C113.04 71.66 112.648 71.348 112.344 70.956C112.048 70.556 111.828 70.1 111.684 69.588C111.548 69.076 111.48 68.532 111.48 67.956V67.284C111.48 66.484 111.612 65.76 111.876 65.112C112.148 64.464 112.564 63.948 113.124 63.564C113.692 63.18 114.412 62.988 115.284 62.988C116.148 62.988 116.86 63.18 117.42 63.564C117.98 63.948 118.392 64.464 118.656 65.112C118.928 65.76 119.064 66.484 119.064 67.284V67.956C119.064 68.532 118.992 69.076 118.848 69.588C118.712 70.1 118.492 70.556 118.188 70.956C117.892 71.348 117.504 71.66 117.024 71.892C116.544 72.116 115.964 72.228 115.284 72.228ZM115.284 70.668C115.988 70.668 116.508 70.424 116.844 69.936C117.188 69.44 117.36 68.672 117.36 67.632C117.36 66.536 117.188 65.748 116.844 65.268C116.5 64.788 115.98 64.548 115.284 64.548C114.58 64.548 114.052 64.788 113.7 65.268C113.356 65.74 113.184 66.52 113.184 67.608C113.184 68.664 113.352 69.44 113.688 69.936C114.032 70.424 114.564 70.668 115.284 70.668ZM124.355 72.228C123.667 72.228 123.079 72.116 122.591 71.892C122.111 71.66 121.719 71.348 121.415 70.956C121.119 70.556 120.899 70.1 120.755 69.588C120.619 69.076 120.551 68.532 120.551 67.956V67.284C120.551 66.484 120.683 65.76 120.947 65.112C121.219 64.464 121.635 63.948 122.195 63.564C122.763 63.18 123.483 62.988 124.355 62.988C125.219 62.988 125.931 63.18 126.491 63.564C127.051 63.948 127.463 64.464 127.727 65.112C127.999 65.76 128.135 66.484 128.135 67.284V67.956C128.135 68.532 128.063 69.076 127.919 69.588C127.783 70.1 127.563 70.556 127.259 70.956C126.963 71.348 126.575 71.66 126.095 71.892C125.615 72.116 125.035 72.228 124.355 72.228ZM124.355 70.668C125.059 70.668 125.579 70.424 125.915 69.936C126.259 69.44 126.431 68.672 126.431 67.632C126.431 66.536 126.259 65.748 125.915 65.268C125.571 64.788 125.051 64.548 124.355 64.548C123.651 64.548 123.123 64.788 122.771 65.268C122.427 65.74 122.255 66.52 122.255 67.608C122.255 68.664 122.423 69.44 122.759 69.936C123.103 70.424 123.635 70.668 124.355 70.668ZM133.425 72.228C132.737 72.228 132.149 72.116 131.661 71.892C131.181 71.66 130.789 71.348 130.485 70.956C130.189 70.556 129.969 70.1 129.825 69.588C129.689 69.076 129.621 68.532 129.621 67.956V67.284C129.621 66.484 129.753 65.76 130.017 65.112C130.289 64.464 130.705 63.948 131.265 63.564C131.833 63.18 132.553 62.988 133.425 62.988C134.289 62.988 135.001 63.18 135.561 63.564C136.121 63.948 136.533 64.464 136.797 65.112C137.069 65.76 137.205 66.484 137.205 67.284V67.956C137.205 68.532 137.133 69.076 136.989 69.588C136.853 70.1 136.633 70.556 136.329 70.956C136.033 71.348 135.645 71.66 135.165 71.892C134.685 72.116 134.105 72.228 133.425 72.228ZM133.425 70.668C134.129 70.668 134.649 70.424 134.985 69.936C135.329 69.44 135.501 68.672 135.501 67.632C135.501 66.536 135.329 65.748 134.985 65.268C134.641 64.788 134.121 64.548 133.425 64.548C132.721 64.548 132.193 64.788 131.841 65.268C131.497 65.74 131.325 66.52 131.325 67.608C131.325 68.664 131.493 69.44 131.829 69.936C132.173 70.424 132.705 70.668 133.425 70.668Z" fill="#6C7193"/>
<path d="M90 32L89.9068 32.8391C89.4936 36.5579 86.5579 39.4936 82.8391 39.9068L82 40L82.8391 40.0932C86.5579 40.5064 89.4936 43.4421 89.9068 47.1609L90 48L90.0932 47.1609C90.5064 43.4421 93.4421 40.5064 97.1609 40.0932L98 40L97.1609 39.9068C93.4421 39.4936 90.5064 36.5579 90.0932 32.8391L90 32Z" fill="#DDD1F3"/>
<defs>
<linearGradient id="paint0_linear_175_3344" x1="345.171" y1="19.1606" x2="267.149" y2="94.9699" gradientUnits="userSpaceOnUse">
<stop stop-color="#E4E0FC"/>
<stop offset="1" stop-color="#E4E0FC" stop-opacity="0"/>
</linearGradient>
<radialGradient id="paint1_radial_175_3344" cx="0" cy="0" r="1" gradientUnits="userSpaceOnUse" gradientTransform="translate(265.514 74.4956) rotate(-31.0786) scale(110.321 142.415)">
<stop stop-color="white" stop-opacity="0"/>
<stop offset="1" stop-color="white"/>
</radialGradient>
<linearGradient id="paint2_linear_175_3344" x1="525.171" y1="83.7202" x2="509.199" y2="130.277" gradientUnits="userSpaceOnUse">
<stop stop-color="#E4E0FC"/>
<stop offset="1" stop-color="#E4E0FC" stop-opacity="0"/>
</linearGradient>
<radialGradient id="paint3_radial_175_3344" cx="0" cy="0" r="1" gradientUnits="userSpaceOnUse" gradientTransform="translate(445.514 102.165) rotate(-11.36) scale(96.3735 54.3418)">
<stop stop-color="white" stop-opacity="0"/>
<stop offset="1" stop-color="white"/>
</radialGradient>
<linearGradient id="paint4_linear_175_3344" x1="165.171" y1="51.4404" x2="116.621" y2="122.201" gradientUnits="userSpaceOnUse">
<stop stop-color="#E4E0FC"/>
<stop offset="1" stop-color="#E4E0FC" stop-opacity="0"/>
</linearGradient>
<radialGradient id="paint5_radial_175_3344" cx="0" cy="0" r="1" gradientUnits="userSpaceOnUse" gradientTransform="translate(85.5143 88.3304) rotate(-21.8912) scale(101.828 102.862)">
<stop stop-color="white" stop-opacity="0"/>
<stop offset="1" stop-color="white"/>
</radialGradient>
</defs>
</svg>
