<svg width="200" height="200" viewBox="0 0 200 200" fill="none" xmlns="http://www.w3.org/2000/svg">
<g clip-path="url(#clip0_175_3261)">
<path d="M8.65513 180.799L-0.129639 148.669H7.88349L14.4721 174.053H15.7186L20.5264 149.734H30.0235L35.5436 174.053H36.7901L42.6664 148.669H50.1453L42.3696 180.799H30.5577L25.2156 157.722L20.4671 180.799H8.65513Z" fill="white"/>
<path d="M65.3777 181.627C61.8163 181.627 58.9672 180.72 56.8304 178.905C54.7331 177.091 53.6845 174.546 53.6845 171.272C53.6845 167.761 54.9507 165.177 57.4833 163.521C60.0554 161.824 63.4981 160.976 67.8113 160.976H74.3999V160.68C74.3999 157.012 72.5401 155.177 68.8204 155.177C67.8311 155.177 66.644 155.197 65.259 155.237C63.874 155.276 62.4692 155.335 61.0447 155.414C59.6597 155.454 58.4132 155.513 57.3052 155.592V148.609C58.6506 148.491 60.2533 148.392 62.1131 148.314C64.0125 148.235 65.7536 148.195 67.3365 148.195C72.2828 148.195 76.0025 149.201 78.4955 151.213C81.028 153.185 82.2943 156.4 82.2943 160.858V180.799H75.7651V174.645C74.301 179.3 70.8385 181.627 65.3777 181.627ZM67.6926 175.769C68.8006 175.769 69.8492 175.572 70.8385 175.177C71.8278 174.744 72.639 174.033 73.2721 173.047C73.9448 172.022 74.3208 170.641 74.3999 168.905V165.887H67.6926C65.7932 165.887 64.3291 166.361 63.3002 167.308C62.311 168.215 61.8163 169.398 61.8163 170.858C61.8163 172.357 62.311 173.56 63.3002 174.467C64.3291 175.335 65.7932 175.769 67.6926 175.769Z" fill="white"/>
<path d="M103.716 193.461C100.431 193.461 97.3644 193.245 94.5153 192.811V185.947C95.9003 186.144 97.4039 186.302 99.0264 186.42C100.688 186.538 102.232 186.598 103.656 186.598C107.613 186.598 110.462 185.868 112.204 184.408C113.984 182.988 114.875 180.68 114.875 177.485V174.645C113.767 176.736 112.243 178.333 110.304 179.438C108.405 180.503 106.209 181.035 103.716 181.035C100.748 181.035 98.1558 180.325 95.9398 178.905C93.7634 177.446 92.0619 175.513 90.8352 173.106C89.6085 170.661 88.9951 167.919 88.9951 164.882V163.639C88.9951 160.601 89.6282 157.88 90.8945 155.473C92.2004 153.067 93.9811 151.173 96.2366 149.793C98.5317 148.373 101.183 147.663 104.19 147.663C107 147.663 109.414 148.314 111.432 149.615C113.49 150.917 115.053 152.791 116.121 155.237V148.669H122.65V177.012C122.65 182.889 121.127 187.091 118.08 189.615C115.033 192.179 110.245 193.461 103.716 193.461ZM106.09 173.994C107.673 173.994 109.117 173.639 110.423 172.929C111.729 172.219 112.777 171.193 113.569 169.852C114.36 168.511 114.756 166.893 114.756 165V162.929C114.756 161.114 114.34 159.576 113.509 158.314C112.718 157.051 111.65 156.104 110.304 155.473C108.998 154.803 107.593 154.467 106.09 154.467C103.478 154.467 101.341 155.375 99.6793 157.189C98.0569 158.964 97.2457 161.331 97.2457 164.29C97.2457 167.288 98.0569 169.655 99.6793 171.39C101.341 173.126 103.478 173.994 106.09 173.994Z" fill="white"/>
<path d="M131.65 180.799V148.669H138.179V156.538C139.524 150.621 143.026 147.663 148.685 147.663H149.041C154.146 147.663 157.509 150.089 159.132 154.941C160.715 150.089 164.078 147.663 169.222 147.663H169.579C173.259 147.663 176.048 148.925 177.948 151.45C179.887 153.974 180.856 157.643 180.856 162.456V180.799H172.606V161.686C172.606 159.674 172.091 158.077 171.062 156.893C170.034 155.671 168.569 155.059 166.67 155.059C164.731 155.059 163.188 155.69 162.04 156.953C160.932 158.175 160.378 159.832 160.378 161.923V180.799H152.128V161.686C152.128 159.674 151.613 158.077 150.584 156.893C149.556 155.671 148.091 155.059 146.192 155.059C144.253 155.059 142.71 155.69 141.562 156.953C140.454 158.175 139.9 159.832 139.9 161.923V180.799H131.65Z" fill="white"/>
<path d="M194.243 144.822C192.621 144.822 191.414 144.408 190.623 143.58C189.871 142.712 189.495 141.627 189.495 140.325C189.495 139.024 189.871 137.958 190.623 137.13C191.414 136.302 192.621 135.887 194.243 135.887C195.826 135.887 196.994 136.302 197.746 137.13C198.537 137.958 198.933 139.024 198.933 140.325C198.933 141.627 198.537 142.712 197.746 143.58C196.994 144.408 195.826 144.822 194.243 144.822ZM191.216 180.799V154.822H186.705V148.669H199.467V180.799H191.216Z" fill="white"/>
<path fill-rule="evenodd" clip-rule="evenodd" d="M63.9491 9.2701C63.9491 12.3736 62.0373 15.0306 59.3272 16.1277L59.3272 37.4861C69.9293 27.4454 84.2456 21.2871 100 21.2871C132.674 21.2871 159.161 47.7744 159.161 80.448C159.161 94.5646 154.217 107.526 145.965 117.696C145.459 118.321 145.895 119.272 146.7 119.272H161.934C166.018 119.272 169.329 122.583 169.329 126.667C169.329 130.752 166.018 134.062 161.934 134.062H123.11C119.026 134.062 115.715 130.752 115.715 126.667C115.715 123.927 117.205 121.535 119.419 120.258C119.448 120.241 119.437 120.197 119.404 120.197C119.37 120.197 119.359 120.151 119.39 120.136C134.059 112.955 144.161 97.8814 144.161 80.448C144.161 56.0586 124.39 36.2871 100 36.2871C75.6109 36.2871 55.8394 56.0586 55.8394 80.448C55.8394 97.8814 65.9413 112.955 80.6109 120.136C80.6414 120.151 80.6309 120.197 80.597 120.197C80.564 120.197 80.5524 120.241 80.581 120.258C82.7953 121.535 84.2856 123.927 84.2856 126.667C84.2856 130.752 80.9747 134.062 76.8905 134.062H38.0662C33.982 134.062 30.6711 130.752 30.6711 126.667C30.6711 122.583 33.982 119.272 38.0662 119.272H53.3007C54.105 119.272 54.5418 118.321 54.035 117.696C45.7837 107.526 40.8394 94.5646 40.8394 80.448C40.8394 66.4769 45.6823 53.6369 53.7808 43.5152L53.7808 16.1277C51.0707 15.0306 49.1589 12.3736 49.1589 9.2701C49.1589 5.1859 52.4698 1.875 56.554 1.875C60.6382 1.875 63.9491 5.1859 63.9491 9.2701ZM92.6051 73.0529C92.6051 68.9687 89.2942 65.6578 85.21 65.6578C81.1258 65.6578 77.8149 68.9687 77.8149 73.0529V87.8431H92.6051V73.0529ZM114.79 65.6578C118.875 65.6578 122.186 68.9687 122.186 73.0529V87.8431H107.395V73.0529C107.395 68.9687 110.706 65.6578 114.79 65.6578Z" fill="white"/>
</g>
<defs>
<clipPath id="clip0_175_3261">
<rect width="200" height="200" fill="white"/>
</clipPath>
</defs>
</svg>
