<svg width="78" height="66" viewBox="0 0 78 66" fill="none" xmlns="http://www.w3.org/2000/svg">
<path d="M24 10L24.5996 23.8425C24.8241 29.0253 28.9747 33.1759 34.1575 33.4004L48 34L34.1575 34.5996C28.9747 34.8241 24.8241 38.9747 24.5996 44.1575L24 58L23.4004 44.1575C23.1759 38.9747 19.0253 34.8241 13.8425 34.5996L0 34L13.8425 33.4004C19.0253 33.1759 23.1759 29.0253 23.4004 23.8425L24 10Z" fill="#92A2F6"/>
<path d="M51 0L51.1301 3.00258C51.1974 4.55742 52.4426 5.80258 53.9974 5.86994L57 6L53.9974 6.13007C52.4426 6.19742 51.1974 7.44258 51.1301 8.99742L51 12L50.8699 8.99742C50.8026 7.44258 49.5574 6.19742 48.0026 6.13007L45 6L48.0026 5.86994C49.5574 5.80258 50.8026 4.55742 50.8699 3.00258L51 0Z" fill="#92A2F6"/>
<path d="M68 46L68.2168 51.0043C68.329 53.5957 70.4043 55.671 72.9957 55.7832L78 56L72.9957 56.2168C70.4043 56.329 68.329 58.4043 68.2168 60.9957L68 66L67.7832 60.9957C67.671 58.4043 65.5957 56.329 63.0043 56.2168L58 56L63.0043 55.7832C65.5957 55.671 67.671 53.5957 67.7832 51.0043L68 46Z" fill="#92A2F6"/>
</svg>
