<svg width="126" height="305" viewBox="0 0 126 305" fill="none" xmlns="http://www.w3.org/2000/svg">
<path d="M57.5 190L59.4905 235.952C59.715 241.134 63.8656 245.285 69.0484 245.509L115 247.5L69.0484 249.491C63.8656 249.715 59.715 253.866 59.4905 259.048L57.5 305L55.5095 259.048C55.285 253.866 51.1344 249.715 45.9516 249.491L0 247.5L45.9516 245.509C51.1344 245.285 55.285 241.134 55.5095 235.952L57.5 190Z" fill="#92A2F6"/>
<path d="M43.5 0L43.983 11.1497C44.0503 12.7045 45.2955 13.9497 46.8503 14.017L58 14.5L46.8503 14.983C45.2955 15.0503 44.0503 16.2955 43.983 17.8503L43.5 29L43.017 17.8503C42.9497 16.2955 41.7045 15.0503 40.1497 14.983L29 14.5L40.1497 14.017C41.7045 13.9497 42.9497 12.7045 43.017 11.1497L43.5 0Z" fill="#92A2F6"/>
<path d="M102 81L102.798 99.423C102.91 102.014 104.986 104.09 107.577 104.202L126 105L107.577 105.798C104.986 105.91 102.91 107.986 102.798 110.577L102 129L101.202 110.577C101.09 107.986 99.0144 105.91 96.423 105.798L78 105L96.423 104.202C99.0144 104.09 101.09 102.014 101.202 99.423L102 81Z" fill="#92A2F6"/>
</svg>
