<svg width="70" height="96" viewBox="0 0 70 96" fill="none" xmlns="http://www.w3.org/2000/svg">
<g clip-path="url(#clip0_175_4941)">
<path d="M5.9072 74.7816C6.72669 76.9963 8.4728 78.7424 10.6874 79.5619C8.4728 80.3814 6.72669 82.1275 5.9072 84.3421C5.08771 82.1275 3.3416 80.3814 1.12695 79.5619C3.3416 78.7424 5.08771 76.9963 5.9072 74.7816Z" fill="#E8FBFF"/>
<path d="M5.9072 74.7816C6.72669 76.9963 8.4728 78.7424 10.6874 79.5619C8.4728 80.3814 6.72669 82.1275 5.9072 84.3421C5.08771 82.1275 3.3416 80.3814 1.12695 79.5619C3.3416 78.7424 5.08771 76.9963 5.9072 74.7816Z" fill="url(#paint0_radial_175_4941)"/>
<path d="M5.9072 74.7816C6.72669 76.9963 8.4728 78.7424 10.6874 79.5619C8.4728 80.3814 6.72669 82.1275 5.9072 84.3421C5.08771 82.1275 3.3416 80.3814 1.12695 79.5619C3.3416 78.7424 5.08771 76.9963 5.9072 74.7816Z" fill="url(#paint1_radial_175_4941)"/>
<path d="M5.9072 74.7816C6.72669 76.9963 8.4728 78.7424 10.6874 79.5619C8.4728 80.3814 6.72669 82.1275 5.9072 84.3421C5.08771 82.1275 3.3416 80.3814 1.12695 79.5619C3.3416 78.7424 5.08771 76.9963 5.9072 74.7816Z" fill="url(#paint2_radial_175_4941)"/>
<path d="M5.9072 74.7816C6.72669 76.9963 8.4728 78.7424 10.6874 79.5619C8.4728 80.3814 6.72669 82.1275 5.9072 84.3421C5.08771 82.1275 3.3416 80.3814 1.12695 79.5619C3.3416 78.7424 5.08771 76.9963 5.9072 74.7816Z" fill="url(#paint3_radial_175_4941)" fill-opacity="0.4"/>
<path d="M27.4199 -0.108887L27.8634 10.1283C28.2675 19.4574 35.7384 26.9283 45.0675 27.3324L55.3047 27.7759L45.0675 28.2193C35.7384 28.6234 28.2675 36.0944 27.8634 45.4235L27.4199 55.6606L26.9765 45.4235C26.5723 36.0944 19.1014 28.6234 9.77232 28.2193L-0.464844 27.7759L9.77233 27.3324C19.1014 26.9283 26.5723 19.4573 26.9765 10.1283L27.4199 -0.108887Z" fill="#E8FBFF"/>
<path d="M27.4199 -0.108887L27.8634 10.1283C28.2675 19.4574 35.7384 26.9283 45.0675 27.3324L55.3047 27.7759L45.0675 28.2193C35.7384 28.6234 28.2675 36.0944 27.8634 45.4235L27.4199 55.6606L26.9765 45.4235C26.5723 36.0944 19.1014 28.6234 9.77232 28.2193L-0.464844 27.7759L9.77233 27.3324C19.1014 26.9283 26.5723 19.4573 26.9765 10.1283L27.4199 -0.108887Z" fill="url(#paint4_radial_175_4941)"/>
<path d="M27.4199 -0.108887L27.8634 10.1283C28.2675 19.4574 35.7384 26.9283 45.0675 27.3324L55.3047 27.7759L45.0675 28.2193C35.7384 28.6234 28.2675 36.0944 27.8634 45.4235L27.4199 55.6606L26.9765 45.4235C26.5723 36.0944 19.1014 28.6234 9.77232 28.2193L-0.464844 27.7759L9.77233 27.3324C19.1014 26.9283 26.5723 19.4573 26.9765 10.1283L27.4199 -0.108887Z" fill="url(#paint5_radial_175_4941)"/>
<path d="M27.4199 -0.108887L27.8634 10.1283C28.2675 19.4574 35.7384 26.9283 45.0675 27.3324L55.3047 27.7759L45.0675 28.2193C35.7384 28.6234 28.2675 36.0944 27.8634 45.4235L27.4199 55.6606L26.9765 45.4235C26.5723 36.0944 19.1014 28.6234 9.77232 28.2193L-0.464844 27.7759L9.77233 27.3324C19.1014 26.9283 26.5723 19.4573 26.9765 10.1283L27.4199 -0.108887Z" fill="url(#paint6_radial_175_4941)"/>
<path d="M27.4199 -0.108887L27.8634 10.1283C28.2675 19.4574 35.7384 26.9283 45.0675 27.3324L55.3047 27.7759L45.0675 28.2193C35.7384 28.6234 28.2675 36.0944 27.8634 45.4235L27.4199 55.6606L26.9765 45.4235C26.5723 36.0944 19.1014 28.6234 9.77232 28.2193L-0.464844 27.7759L9.77233 27.3324C19.1014 26.9283 26.5723 19.4573 26.9765 10.1283L27.4199 -0.108887Z" fill="url(#paint7_radial_175_4941)" fill-opacity="0.4"/>
<path d="M57.6926 70.798L57.9044 75.6872C58.084 79.8335 61.4045 83.1539 65.5507 83.3335L70.44 83.5453L65.5507 83.7571C61.4045 83.9367 58.084 87.2571 57.9044 91.4034L57.6926 96.2926L57.4808 91.4034C57.3012 87.2571 53.9808 83.9367 49.8346 83.7571L44.9453 83.5453L49.8346 83.3335C53.9808 83.1539 57.3012 79.8335 57.4808 75.6872L57.6926 70.798Z" fill="#E8FBFF"/>
<path d="M57.6926 70.798L57.9044 75.6872C58.084 79.8335 61.4045 83.1539 65.5507 83.3335L70.44 83.5453L65.5507 83.7571C61.4045 83.9367 58.084 87.2571 57.9044 91.4034L57.6926 96.2926L57.4808 91.4034C57.3012 87.2571 53.9808 83.9367 49.8346 83.7571L44.9453 83.5453L49.8346 83.3335C53.9808 83.1539 57.3012 79.8335 57.4808 75.6872L57.6926 70.798Z" fill="url(#paint8_radial_175_4941)"/>
<path d="M57.6926 70.798L57.9044 75.6872C58.084 79.8335 61.4045 83.1539 65.5507 83.3335L70.44 83.5453L65.5507 83.7571C61.4045 83.9367 58.084 87.2571 57.9044 91.4034L57.6926 96.2926L57.4808 91.4034C57.3012 87.2571 53.9808 83.9367 49.8346 83.7571L44.9453 83.5453L49.8346 83.3335C53.9808 83.1539 57.3012 79.8335 57.4808 75.6872L57.6926 70.798Z" fill="url(#paint9_radial_175_4941)"/>
<path d="M57.6926 70.798L57.9044 75.6872C58.084 79.8335 61.4045 83.1539 65.5507 83.3335L70.44 83.5453L65.5507 83.7571C61.4045 83.9367 58.084 87.2571 57.9044 91.4034L57.6926 96.2926L57.4808 91.4034C57.3012 87.2571 53.9808 83.9367 49.8346 83.7571L44.9453 83.5453L49.8346 83.3335C53.9808 83.1539 57.3012 79.8335 57.4808 75.6872L57.6926 70.798Z" fill="url(#paint10_radial_175_4941)"/>
<path d="M57.6926 70.798L57.9044 75.6872C58.084 79.8335 61.4045 83.1539 65.5507 83.3335L70.44 83.5453L65.5507 83.7571C61.4045 83.9367 58.084 87.2571 57.9044 91.4034L57.6926 96.2926L57.4808 91.4034C57.3012 87.2571 53.9808 83.9367 49.8346 83.7571L44.9453 83.5453L49.8346 83.3335C53.9808 83.1539 57.3012 79.8335 57.4808 75.6872L57.6926 70.798Z" fill="url(#paint11_radial_175_4941)" fill-opacity="0.4"/>
</g>
<defs>
<radialGradient id="paint0_radial_175_4941" cx="0" cy="0" r="1" gradientUnits="userSpaceOnUse" gradientTransform="translate(4.06864 78.2327) rotate(118.335) scale(11.7258 13.4172)">
<stop stop-color="#98A8FF"/>
<stop offset="1" stop-color="#B3B3FF" stop-opacity="0"/>
</radialGradient>
<radialGradient id="paint1_radial_175_4941" cx="0" cy="0" r="1" gradientUnits="userSpaceOnUse" gradientTransform="translate(7.62631 81.3528) rotate(166.333) scale(9.62792 14.2343)">
<stop stop-color="#DDD1F3"/>
<stop offset="1" stop-color="#B3B3FF" stop-opacity="0"/>
</radialGradient>
<radialGradient id="paint2_radial_175_4941" cx="0" cy="0" r="1" gradientUnits="userSpaceOnUse" gradientTransform="translate(0.56131 74.0945) rotate(103.509) scale(9.80447 10.4407)">
<stop stop-color="#99E6E5"/>
<stop offset="1" stop-color="#B3B3FF" stop-opacity="0"/>
</radialGradient>
<radialGradient id="paint3_radial_175_4941" cx="0" cy="0" r="1" gradientUnits="userSpaceOnUse" gradientTransform="translate(4.14815 78.0337) rotate(121.859) scale(5.30959 6.60031)">
<stop offset="0.0554921" stop-color="white" stop-opacity="0"/>
<stop offset="1" stop-color="white"/>
</radialGradient>
<radialGradient id="paint4_radial_175_4941" cx="0" cy="0" r="1" gradientUnits="userSpaceOnUse" gradientTransform="translate(16.695 20.0224) rotate(118.335) scale(68.4006 78.2668)">
<stop stop-color="#98A8FF"/>
<stop offset="1" stop-color="#B3B3FF" stop-opacity="0"/>
</radialGradient>
<radialGradient id="paint5_radial_175_4941" cx="0" cy="0" r="1" gradientUnits="userSpaceOnUse" gradientTransform="translate(37.4481 38.223) rotate(166.333) scale(56.1629 83.0334)">
<stop stop-color="#DDD1F3"/>
<stop offset="1" stop-color="#B3B3FF" stop-opacity="0"/>
</radialGradient>
<radialGradient id="paint6_radial_175_4941" cx="0" cy="0" r="1" gradientUnits="userSpaceOnUse" gradientTransform="translate(-3.76443 -4.11719) rotate(103.509) scale(57.1927 60.9039)">
<stop stop-color="#99E6E5"/>
<stop offset="1" stop-color="#B3B3FF" stop-opacity="0"/>
</radialGradient>
<radialGradient id="paint7_radial_175_4941" cx="0" cy="0" r="1" gradientUnits="userSpaceOnUse" gradientTransform="translate(17.1588 18.8618) rotate(121.859) scale(30.9726 38.5018)">
<stop offset="0.0554921" stop-color="white" stop-opacity="0"/>
<stop offset="1" stop-color="white"/>
</radialGradient>
<radialGradient id="paint8_radial_175_4941" cx="0" cy="0" r="1" gradientUnits="userSpaceOnUse" gradientTransform="translate(52.7898 80.0008) rotate(118.335) scale(31.2688 35.7791)">
<stop stop-color="#98A8FF"/>
<stop offset="1" stop-color="#B3B3FF" stop-opacity="0"/>
</radialGradient>
<radialGradient id="paint9_radial_175_4941" cx="0" cy="0" r="1" gradientUnits="userSpaceOnUse" gradientTransform="translate(62.2769 88.3211) rotate(166.333) scale(25.6745 37.9581)">
<stop stop-color="#DDD1F3"/>
<stop offset="1" stop-color="#B3B3FF" stop-opacity="0"/>
</radialGradient>
<radialGradient id="paint10_radial_175_4941" cx="0" cy="0" r="1" gradientUnits="userSpaceOnUse" gradientTransform="translate(43.4369 68.9656) rotate(103.509) scale(26.1453 27.8418)">
<stop stop-color="#99E6E5"/>
<stop offset="1" stop-color="#B3B3FF" stop-opacity="0"/>
</radialGradient>
<radialGradient id="paint11_radial_175_4941" cx="0" cy="0" r="1" gradientUnits="userSpaceOnUse" gradientTransform="translate(53.0018 79.4703) rotate(121.859) scale(14.1589 17.6008)">
<stop offset="0.0554921" stop-color="white" stop-opacity="0"/>
<stop offset="1" stop-color="white"/>
</radialGradient>
<clipPath id="clip0_175_4941">
<rect width="70" height="96" fill="white"/>
</clipPath>
</defs>
</svg>
