<svg width="184" height="170" viewBox="0 0 184 170" fill="none" xmlns="http://www.w3.org/2000/svg">
<path d="M8.5 153C9.95718 156.938 13.062 160.043 17 161.5C13.062 162.957 9.95718 166.062 8.5 170C7.04282 166.062 3.93797 162.957 0 161.5C3.93797 160.043 7.04282 156.938 8.5 153Z" fill="#DDD1F3"/>
<path d="M57.5 0L58.7994 29.9965C59.2035 39.3255 66.6745 46.7965 76.0035 47.2006L106 48.5L76.0035 49.7994C66.6745 50.2035 59.2035 57.6745 58.7994 67.0035L57.5 97L56.2006 67.0035C55.7965 57.6745 48.3255 50.2035 38.9965 49.7994L9 48.5L38.9965 47.2006C48.3255 46.7965 55.7965 39.3255 56.2006 29.9965L57.5 0Z" fill="#DDD1F3"/>
<path d="M162 97L162.596 110.758C162.776 114.904 166.096 118.224 170.242 118.404L184 119L170.242 119.596C166.096 119.776 162.776 123.096 162.596 127.242L162 141L161.404 127.242C161.224 123.096 157.904 119.776 153.758 119.596L140 119L153.758 118.404C157.904 118.224 161.224 114.904 161.404 110.758L162 97Z" fill="#DDD1F3"/>
</svg>
